<?xml version="1.0" encoding="UTF-8"?>
<svg xmlns="http://www.w3.org/2000/svg" xmlns:inkscape="http://www.inkscape.org/namespaces/inkscape" width="210.0mm" height="297.0mm" viewBox="0 0 210.0 297.0">
  <g inkscape:groupmode="layer" inkscape:label="frame" id="frame">
    <rect x="15.00" y="15.00" width="180.00" height="267.00" fill="none" stroke="black" stroke-width="0.5"/>
    <line x1="11.00" y1="15.00" x2="19.00" y2="15.00" stroke="black" stroke-width="0.3"/>
    <line x1="15.00" y1="11.00" x2="15.00" y2="19.00" stroke="black" stroke-width="0.3"/>
    <line x1="191.00" y1="15.00" x2="199.00" y2="15.00" stroke="black" stroke-width="0.3"/>
    <line x1="195.00" y1="11.00" x2="195.00" y2="19.00" stroke="black" stroke-width="0.3"/>
    <line x1="11.00" y1="282.00" x2="19.00" y2="282.00" stroke="black" stroke-width="0.3"/>
    <line x1="15.00" y1="278.00" x2="15.00" y2="286.00" stroke="black" stroke-width="0.3"/>
    <line x1="191.00" y1="282.00" x2="199.00" y2="282.00" stroke="black" stroke-width="0.3"/>
    <line x1="195.00" y1="278.00" x2="195.00" y2="286.00" stroke="black" stroke-width="0.3"/>
  </g>
  <g inkscape:groupmode="layer" inkscape:label="counties" id="counties">
    <polyline points="104.93,88.63 105.08,88.20 105.19,88.23 104.93,88.63" fill="none" stroke="gray" stroke-width="0.18"/>
    <polyline points="103.88,82.61 103.95,82.56 103.95,82.59 103.88,82.61" fill="none" stroke="gray" stroke-width="0.18"/>
    <polyline points="103.82,82.10 103.96,81.97 104.05,81.99 103.82,82.10" fill="none" stroke="gray" stroke-width="0.18"/>
    <polyline points="103.02,83.23 103.04,83.17 103.09,83.19 103.02,83.23" fill="none" stroke="gray" stroke-width="0.18"/>
    <polyline points="102.96,82.34 103.49,82.22 103.43,82.76 103.23,82.79 102.96,82.34" fill="none" stroke="gray" stroke-width="0.18"/>
    <polyline points="102.86,82.16 102.95,82.07 103.03,82.13 102.86,82.16" fill="none" stroke="gray" stroke-width="0.18"/>
    <polyline points="102.69,85.36 102.77,85.30 102.78,85.33 102.69,85.36" fill="none" stroke="gray" stroke-width="0.18"/>
    <polyline points="102.74,81.50 102.98,81.14 103.27,81.12 103.36,81.59 102.74,81.50" fill="none" stroke="gray" stroke-width="0.18"/>
    <polyline points="102.69,84.10 102.74,83.23 103.21,83.33 103.71,83.01 102.69,84.10" fill="none" stroke="gray" stroke-width="0.18"/>
    <polyline points="102.36,82.57 102.42,82.48 102.50,82.54 102.36,82.57" fill="none" stroke="gray" stroke-width="0.18"/>
    <polyline points="101.91,83.60 102.02,83.54 102.04,83.58 101.91,83.60" fill="none" stroke="gray" stroke-width="0.18"/>
    <polyline points="88.78,84.10 96.26,84.49 98.67,86.92 100.43,87.74 101.83,87.15 102.07,85.79 102.69,85.47 103.82,86.97 105.47,87.00 105.50,88.26 105.29,87.84 103.31,88.05 102.86,88.56 102.39,88.17 99.62,88.54 98.79,89.42 90.50,89.31 90.52,87.91 88.71,87.89 88.78,84.10" fill="none" stroke="gray" stroke-width="0.18"/>
    <polyline points="116.96,115.06 130.85,115.19 130.84,116.25 130.38,116.32 130.29,122.33 117.76,121.80 117.95,118.08 116.93,118.22 116.96,115.06" fill="none" stroke="gray" stroke-width="0.18"/>
    <polyline points="66.45,87.62 77.46,87.95 77.17,98.15 68.80,97.92 69.10,89.57 66.38,89.47 66.45,87.62" fill="none" stroke="gray" stroke-width="0.18"/>
    <polyline points="125.49,157.96 126.27,152.59 129.10,153.03 129.07,149.68 134.93,149.80 134.95,147.80 137.82,149.49 139.62,149.55 140.09,149.12 140.06,150.03 145.70,150.19 145.65,151.21 143.33,154.20 142.01,154.69 141.23,156.07 139.91,156.12 137.30,157.52 136.40,155.83 135.33,155.35 132.81,157.59 132.48,159.85 129.80,159.64 129.23,161.32 128.61,161.48 128.72,159.77 126.33,159.65 126.38,158.71 125.49,157.96" fill="none" stroke="gray" stroke-width="0.18"/>
    <polyline points="114.46,158.53 114.97,153.13 117.76,153.38 118.00,150.50 120.75,150.72 120.52,153.61 125.73,153.98 125.47,158.19 126.38,158.71 126.33,159.65 128.72,159.77 128.61,161.48 127.85,162.60 115.14,161.72 115.39,158.88 114.46,158.53" fill="none" stroke="gray" stroke-width="0.18"/>
    <polyline points="95.55,104.25 104.93,104.38 104.69,113.45 95.36,113.51 95.55,104.25" fill="none" stroke="gray" stroke-width="0.18"/>
    <polyline points="55.28,89.06 69.10,89.57 68.80,97.92 66.06,97.83 66.12,96.44 63.34,96.32 63.39,94.91 55.05,94.60 55.28,89.06" fill="none" stroke="gray" stroke-width="0.18"/>
    <polyline points="123.27,93.32 123.39,88.42 125.58,89.14 127.47,88.71 128.89,89.00 134.92,84.49 134.92,86.44 137.24,86.46 137.21,90.43 137.61,91.10 137.21,91.10 137.20,93.53 132.24,93.41 133.01,95.75 125.48,95.78 125.53,93.36 123.27,93.32" fill="none" stroke="gray" stroke-width="0.18"/>
    <polyline points="96.29,80.54 96.31,80.36 96.39,80.38 96.29,80.54" fill="none" stroke="gray" stroke-width="0.18"/>
    <polyline points="88.31,81.68 88.59,81.14 88.73,81.41 88.31,81.68" fill="none" stroke="gray" stroke-width="0.18"/>
    <polyline points="87.78,81.45 88.07,81.16 88.12,81.27 87.78,81.45" fill="none" stroke="gray" stroke-width="0.18"/>
    <polyline points="77.38,90.28 77.77,80.54 87.94,80.44 87.30,82.05 87.90,81.55 88.67,81.85 90.38,81.98 90.77,81.40 91.46,82.34 94.68,84.12 85.09,84.06 84.02,85.50 81.90,86.61 81.55,87.93 80.67,88.75 78.07,90.31 77.38,90.28" fill="none" stroke="gray" stroke-width="0.18"/>
    <polyline points="54.69,102.99 55.05,94.60 63.39,94.91 63.34,96.32 66.12,96.44 65.84,103.41 54.69,102.99" fill="none" stroke="gray" stroke-width="0.18"/>
    <polyline points="72.19,134.00 72.97,126.57 85.63,128.50 84.91,135.33 72.19,134.00" fill="none" stroke="gray" stroke-width="0.18"/>
    <polyline points="101.62,169.64 102.28,162.61 102.76,162.66 102.88,161.38 108.47,162.34 108.37,163.50 111.23,163.76 110.33,173.10 102.72,172.64 102.95,169.75 101.62,169.64" fill="none" stroke="gray" stroke-width="0.18"/>
    <polyline points="87.73,119.63 87.86,113.82 90.66,113.90 90.67,113.43 101.51,113.59 101.43,115.46 99.05,115.44 98.93,120.37 97.50,120.53 97.37,122.15 91.82,121.69 91.88,119.68 87.73,119.63" fill="none" stroke="gray" stroke-width="0.18"/>
    <polyline points="137.20,93.53 137.21,91.10 137.61,91.10 137.21,90.43 137.24,86.46 139.52,86.47 139.56,84.20 144.18,84.19 144.17,81.87 146.54,81.85 146.53,93.56 137.20,93.53" fill="none" stroke="gray" stroke-width="0.18"/>
    <polyline points="105.08,84.99 105.49,84.49 106.55,84.39 106.17,85.55 105.08,84.99" fill="none" stroke="gray" stroke-width="0.18"/>
    <polyline points="100.96,90.42 103.15,89.04 104.22,90.01 105.07,89.53 104.99,89.87 105.78,89.49 106.44,89.80 106.15,88.59 107.59,90.80 110.28,92.12 114.25,90.74 114.32,95.34 102.31,94.94 102.26,90.45 100.96,90.42" fill="none" stroke="gray" stroke-width="0.18"/>
    <polyline points="51.71,162.86 51.98,156.70 59.79,156.99 65.91,158.15 64.27,159.80 65.32,160.56 64.72,161.40 64.03,166.22 61.44,165.13 61.25,163.56 60.62,162.91 59.40,163.76 58.38,163.54 56.93,164.32 55.05,163.37 53.64,161.81 51.71,162.86" fill="none" stroke="gray" stroke-width="0.18"/>
    <polyline points="77.17,98.15 77.38,90.28 80.67,88.75 81.55,87.93 81.90,86.61 84.02,85.50 85.09,84.06 88.78,84.10 88.26,98.52 77.17,98.15" fill="none" stroke="gray" stroke-width="0.18"/>
    <polyline points="88.12,104.10 88.36,95.74 102.32,96.04 102.40,104.30 88.12,104.10" fill="none" stroke="gray" stroke-width="0.18"/>
    <polyline points="104.69,113.45 104.93,104.38 112.35,104.60 112.19,110.01 113.18,111.18 113.17,113.10 114.12,113.12 114.09,118.60 107.11,118.65 107.14,115.86 106.67,115.85 106.66,115.14 107.12,114.94 107.12,113.56 104.69,113.45" fill="none" stroke="gray" stroke-width="0.18"/>
    <polyline points="137.11,105.00 137.20,93.53 146.53,93.56 146.57,105.05 137.11,105.00" fill="none" stroke="gray" stroke-width="0.18"/>
    <polyline points="129.97,104.95 130.13,95.75 133.08,95.70 132.24,93.41 137.20,93.53 137.11,105.00 136.55,105.00 136.44,107.61 130.94,107.34 130.96,104.96 129.97,104.95" fill="none" stroke="gray" stroke-width="0.18"/>
    <polyline points="62.70,113.06 68.36,113.24 68.33,114.16 71.12,114.23 71.11,114.70 76.64,114.84 76.53,118.22 73.76,118.24 73.70,119.91 65.29,119.67 65.18,122.93 62.85,122.86 62.81,123.61 62.31,123.46 62.70,113.06" fill="none" stroke="gray" stroke-width="0.18"/>
    <polyline points="110.42,141.29 110.70,138.47 118.07,139.25 117.84,142.07 120.23,142.25 120.01,145.07 121.39,145.18 120.95,150.74 115.42,150.29 115.48,149.38 112.57,149.14 112.98,144.50 112.04,144.42 112.28,141.60 110.42,141.29" fill="none" stroke="gray" stroke-width="0.18"/>
    <polyline points="62.66,128.64 62.85,122.86 65.18,122.93 65.29,119.67 73.50,119.90 72.67,129.42 62.66,128.64" fill="none" stroke="gray" stroke-width="0.18"/>
    <polyline points="138.79,118.46 138.89,115.75 140.75,115.79 140.85,113.47 141.79,113.29 148.62,113.36 148.60,116.03 149.99,116.05 149.93,118.83 148.53,118.81 148.03,123.00 140.03,122.71 140.17,118.52 138.79,118.46" fill="none" stroke="gray" stroke-width="0.18"/>
    <polyline points="78.96,178.92 80.12,166.80 89.07,166.04 90.13,167.22 89.87,180.00 89.02,180.52 87.70,178.71 84.93,177.95 83.63,177.03 80.96,177.71 80.16,179.33 78.96,178.92" fill="none" stroke="gray" stroke-width="0.18"/>
    <polyline points="138.75,145.86 138.91,140.70 151.00,141.33 150.89,142.97 149.81,144.08 150.80,145.73 149.97,146.37 149.56,148.64 148.26,148.83 145.65,151.21 145.70,150.19 140.06,150.03 140.09,149.12 139.63,149.11 139.70,145.88 138.75,145.86" fill="none" stroke="gray" stroke-width="0.18"/>
    <polyline points="144.49,113.28 144.51,107.79 149.13,107.81 149.24,106.88 150.92,106.89 150.92,107.81 158.23,107.80 158.30,116.14 156.90,116.93 155.67,116.76 154.68,117.96 149.96,117.43 149.99,116.05 148.60,116.03 148.62,113.36 144.49,113.28" fill="none" stroke="gray" stroke-width="0.18"/>
    <polyline points="64.27,159.80 65.82,158.34 72.49,159.11 70.41,174.45 66.16,172.82 66.01,170.41 64.03,166.22 64.72,161.40 65.32,160.56 64.27,159.80" fill="none" stroke="gray" stroke-width="0.18"/>
    <polyline points="53.79,123.30 54.35,111.33 62.75,111.67 62.31,123.46 62.88,123.63 53.79,123.30" fill="none" stroke="gray" stroke-width="0.18"/>
    <polyline points="55.60,80.67 65.34,80.54 65.55,86.68 66.48,86.71 66.38,89.47 55.28,89.06 55.60,80.67" fill="none" stroke="gray" stroke-width="0.18"/>
    <polyline points="134.91,84.63 136.23,82.97 139.83,80.34 140.85,80.33 146.56,77.45 146.54,81.85 144.17,81.87 144.18,84.19 139.56,84.20 139.52,86.47 134.92,86.44 134.91,84.63" fill="none" stroke="gray" stroke-width="0.18"/>
    <polyline points="65.34,80.54 77.77,80.54 77.46,87.95 66.45,87.62 66.48,86.71 65.55,86.68 65.34,80.54" fill="none" stroke="gray" stroke-width="0.18"/>
    <polyline points="88.38,95.48 88.71,87.89 90.52,87.91 90.50,89.31 97.69,89.49 98.56,90.44 99.18,89.65 100.02,90.77 102.26,90.45 102.32,96.04 88.38,95.48" fill="none" stroke="gray" stroke-width="0.18"/>
    <polyline points="107.33,173.05 110.33,173.10 110.92,167.03 113.71,167.31 113.68,167.77 119.36,168.18 119.26,169.60 118.13,171.50 118.06,173.34 116.13,175.01 117.07,177.53 117.30,180.38 116.74,181.21 112.54,181.40 112.76,178.51 109.81,178.27 109.58,175.39 107.11,175.13 107.33,173.05" fill="none" stroke="gray" stroke-width="0.18"/>
    <polyline points="52.45,148.17 52.99,137.20 61.02,137.47 60.75,148.63 52.45,148.17" fill="none" stroke="gray" stroke-width="0.18"/>
    <polyline points="148.03,123.00 148.53,118.81 149.93,118.83 149.96,117.43 154.68,117.96 155.67,119.44 156.48,121.49 156.06,123.69 155.54,124.08 156.13,124.57 156.38,126.39 153.88,131.52 149.48,131.46 149.89,123.06 148.03,123.00" fill="none" stroke="gray" stroke-width="0.18"/>
    <polyline points="140.78,140.75 141.09,131.03 153.88,131.52 153.73,133.30 153.01,134.12 152.59,139.28 151.29,139.40 151.53,141.04 140.78,140.75" fill="none" stroke="gray" stroke-width="0.18"/>
    <polyline points="146.54,88.65 146.56,77.45 158.05,73.46 158.14,88.70 146.54,88.65" fill="none" stroke="gray" stroke-width="0.18"/>
    <polyline points="146.55,100.38 146.54,88.66 158.14,88.70 158.21,100.37 146.55,100.38" fill="none" stroke="gray" stroke-width="0.18"/>
    <polyline points="63.58,148.08 73.14,149.06 72.05,159.06 65.82,158.34 65.78,157.78 63.52,157.57 64.36,149.40 63.55,149.54 63.58,148.08" fill="none" stroke="gray" stroke-width="0.18"/>
    <polyline points="129.23,124.64 129.33,122.29 130.29,122.33 130.38,116.32 135.47,115.25 136.03,115.43 135.76,115.67 138.89,115.74 138.79,118.46 140.17,118.52 139.89,126.86 138.44,126.83 138.35,129.70 131.40,129.44 131.58,124.76 129.23,124.64" fill="none" stroke="gray" stroke-width="0.18"/>
    <polyline points="62.65,128.90 67.90,128.74 72.67,129.42 71.65,139.10 69.05,138.81 69.08,137.63 62.49,137.49 62.65,128.90" fill="none" stroke="gray" stroke-width="0.18"/>
    <polyline points="118.26,104.72 118.40,100.09 120.71,100.14 120.77,98.12 123.15,98.15 123.21,95.76 130.13,95.75 129.97,104.95 118.26,104.72" fill="none" stroke="gray" stroke-width="0.18"/>
    <polyline points="119.32,104.74 130.96,104.96 130.83,115.19 119.26,115.06 119.32,104.74" fill="none" stroke="gray" stroke-width="0.18"/>
    <polyline points="102.88,137.80 103.85,127.29 110.55,127.81 110.51,128.41 117.70,128.74 117.19,137.94 116.38,137.90 116.31,139.10 102.88,137.80" fill="none" stroke="gray" stroke-width="0.18"/>
    <polyline points="138.30,131.05 138.44,126.83 139.89,126.86 140.03,122.71 149.89,123.06 149.48,131.46 138.30,131.05" fill="none" stroke="gray" stroke-width="0.18"/>
    <polyline points="64.29,108.93 65.67,108.98 65.72,107.61 71.31,107.75 71.36,106.36 76.92,106.05 76.64,114.84 71.11,114.70 71.12,114.23 68.33,114.16 68.36,113.24 64.14,113.11 64.29,108.93" fill="none" stroke="gray" stroke-width="0.18"/>
    <polyline points="90.63,151.27 91.43,141.83 101.74,142.63 101.12,150.06 103.87,150.34 103.59,153.08 97.23,152.58 97.59,151.73 90.63,151.27" fill="none" stroke="gray" stroke-width="0.18"/>
    <polyline points="70.42,174.42 72.49,159.11 75.56,159.42 75.17,166.62 80.12,166.80 78.96,178.92 77.37,178.38 76.97,176.95 75.75,176.33 75.05,174.96 72.69,174.01 70.42,174.42" fill="none" stroke="gray" stroke-width="0.18"/>
    <polyline points="91.66,128.05 91.82,121.69 97.37,122.15 97.32,122.62 99.69,122.80 99.54,124.61 104.04,124.98 103.48,132.11 93.50,131.34 93.52,128.11 91.66,128.05" fill="none" stroke="gray" stroke-width="0.18"/>
    <polyline points="69.78,148.46 70.57,140.39 71.50,140.49 71.55,140.02 74.34,140.35 74.29,140.82 77.09,141.11 77.01,141.89 81.46,142.75 80.69,149.91 69.78,148.46" fill="none" stroke="gray" stroke-width="0.18"/>
    <polyline points="72.05,159.06 73.14,149.06 83.01,150.16 82.49,155.44 77.58,158.99 76.96,160.19 76.28,160.21 76.33,159.50 72.05,159.06" fill="none" stroke="gray" stroke-width="0.18"/>
    <polyline points="97.32,122.62 97.50,120.53 98.93,120.37 99.05,115.44 101.43,115.46 101.52,113.35 107.12,113.56 107.12,114.94 106.66,114.92 106.67,115.85 107.14,115.86 107.11,118.65 106.65,118.63 106.43,125.17 99.54,124.61 99.69,122.80 97.32,122.62" fill="none" stroke="gray" stroke-width="0.18"/>
    <polyline points="91.16,135.75 91.34,134.30 92.39,134.34 92.59,132.44 93.47,132.48 93.50,131.34 103.48,132.11 102.86,138.03 102.16,137.97 102.09,138.91 102.55,138.95 102.29,141.75 101.82,141.69 101.74,142.63 91.43,141.83 91.31,138.48 91.97,138.03 91.16,135.75" fill="none" stroke="gray" stroke-width="0.18"/>
    <polyline points="64.45,103.36 65.84,103.41 66.06,97.83 77.17,98.15 76.92,106.05 71.36,106.36 71.31,107.75 65.72,107.61 65.76,106.19 64.37,106.14 64.45,103.36" fill="none" stroke="gray" stroke-width="0.18"/>
    <polyline points="87.30,165.89 88.22,161.37 102.28,162.61 101.62,169.64 91.54,169.03 90.94,167.43 89.07,166.04 87.30,165.89" fill="none" stroke="gray" stroke-width="0.18"/>
    <polyline points="103.86,127.07 104.04,124.98 106.43,125.17 106.65,118.63 113.16,118.72 117.95,118.08 117.38,128.73 110.51,128.41 110.55,127.81 103.86,127.07" fill="none" stroke="gray" stroke-width="0.18"/>
    <polyline points="117.57,131.03 117.76,121.80 129.33,122.29 129.23,124.65 131.58,124.76 131.40,129.44 130.29,129.39 130.19,131.67 117.57,131.03" fill="none" stroke="gray" stroke-width="0.18"/>
    <polyline points="113.68,167.77 114.20,161.65 127.85,162.60 128.09,165.23 126.38,166.00 127.60,167.86 127.15,169.47 127.72,170.65 126.01,170.06 125.28,171.75 124.45,172.33 123.49,171.71 124.24,170.57 123.39,168.71 122.24,168.52 121.59,167.36 120.80,167.52 119.26,169.60 119.36,168.18 113.68,167.77" fill="none" stroke="gray" stroke-width="0.18"/>
    <polyline points="114.25,90.74 116.16,90.69 118.13,89.43 122.75,88.11 123.39,88.42 123.27,93.32 125.53,93.36 125.48,95.78 123.21,95.76 123.15,98.15 120.77,98.12 120.71,100.14 118.40,100.09 118.33,102.44 114.35,102.31 114.25,90.74" fill="none" stroke="gray" stroke-width="0.18"/>
    <polyline points="51.98,156.70 52.45,148.33 60.75,148.63 60.77,147.93 63.58,148.07 63.55,149.54 64.36,149.40 63.52,157.57 56.69,156.68 51.98,156.70" fill="none" stroke="gray" stroke-width="0.18"/>
    <polyline points="72.97,126.57 73.76,118.24 85.27,119.42 84.25,128.34 72.97,126.57" fill="none" stroke="gray" stroke-width="0.18"/>
    <polyline points="77.17,98.15 88.26,98.52 88.12,104.10 87.21,104.09 86.68,106.84 85.76,106.81 85.65,109.58 76.83,109.25 77.17,98.15" fill="none" stroke="gray" stroke-width="0.18"/>
    <polyline points="129.45,144.27 129.55,141.50 132.35,141.63 132.40,139.76 135.21,139.88 135.25,138.96 137.11,139.03 137.14,138.10 140.87,138.09 140.78,140.75 138.91,140.70 138.75,145.86 139.70,145.88 139.62,149.55 136.87,149.23 136.41,148.31 134.95,147.80 134.93,149.80 132.10,149.67 132.17,147.21 130.76,147.15 130.86,144.35 129.45,144.27" fill="none" stroke="gray" stroke-width="0.18"/>
    <polyline points="71.55,140.02 72.19,134.00 85.00,135.36 82.88,143.00 79.17,142.48 77.01,141.89 77.09,141.11 71.55,140.02" fill="none" stroke="gray" stroke-width="0.18"/>
    <polyline points="128.72,138.65 129.08,131.62 130.19,131.67 130.29,129.39 138.35,129.70 138.30,131.05 141.08,131.12 140.87,138.09 137.14,138.10 137.11,139.03 135.25,138.96 135.21,139.88 132.40,139.76 132.35,141.63 129.88,141.52 129.64,138.69 128.72,138.65" fill="none" stroke="gray" stroke-width="0.18"/>
    <polyline points="111.92,102.28 118.33,102.44 118.26,104.72 119.32,104.74 119.26,115.06 116.96,115.06 116.93,118.22 114.09,118.60 114.12,113.12 113.17,113.10 113.18,111.18 112.19,110.01 111.92,102.28" fill="none" stroke="gray" stroke-width="0.18"/>
    <polyline points="84.25,128.34 85.26,119.60 91.88,119.68 91.66,128.05 93.52,128.11 93.47,132.48 85.31,132.13 85.63,128.50 84.25,128.34" fill="none" stroke="gray" stroke-width="0.18"/>
    <polyline points="103.33,156.27 103.91,149.88 106.63,150.09 106.71,148.67 109.71,148.90 109.88,147.03 112.73,147.29 112.57,149.14 115.48,149.38 115.42,150.29 118.00,150.50 117.76,153.38 114.97,153.13 114.70,155.95 109.14,155.50 109.05,156.34 106.16,156.08 106.12,156.54 103.33,156.27" fill="none" stroke="gray" stroke-width="0.18"/>
    <polyline points="85.65,109.58 85.76,106.81 86.68,106.84 87.21,104.09 95.55,104.25 95.36,113.51 90.67,113.43 90.66,113.90 86.03,113.32 86.12,109.60 85.65,109.58" fill="none" stroke="gray" stroke-width="0.18"/>
    <polyline points="130.84,116.25 130.94,107.34 136.44,107.61 136.55,105.00 144.52,105.04 144.49,113.34 140.85,113.47 140.75,115.79 135.76,115.67 136.03,115.43 135.47,115.25 130.84,116.25" fill="none" stroke="gray" stroke-width="0.18"/>
    <polyline points="87.28,158.96 87.84,155.71 90.63,151.27 97.59,151.73 97.23,152.58 103.59,153.08 102.76,162.66 88.22,161.37 88.47,159.68 87.95,159.96 87.28,158.96" fill="none" stroke="gray" stroke-width="0.18"/>
    <polyline points="102.31,94.94 114.32,95.34 114.35,102.31 111.92,102.28 111.98,104.60 102.40,104.30 102.31,94.94" fill="none" stroke="gray" stroke-width="0.18"/>
    <polyline points="80.69,149.91 81.27,144.61 91.12,145.56 90.63,151.27 87.89,155.63 82.49,155.44 83.01,150.16 80.69,149.91" fill="none" stroke="gray" stroke-width="0.18"/>
    <polyline points="75.18,166.55 75.56,159.42 76.33,159.50 76.28,160.21 76.96,160.19 77.58,158.99 82.49,155.44 87.89,155.63 87.28,159.11 88.04,160.00 88.43,159.62 88.50,160.24 87.30,165.89 81.65,166.90 75.18,166.55" fill="none" stroke="gray" stroke-width="0.18"/>
    <polyline points="54.69,102.99 64.45,103.36 64.37,106.14 65.76,106.19 65.67,108.98 64.29,108.93 64.14,113.11 62.70,113.06 62.75,111.67 54.35,111.33 54.69,102.99" fill="none" stroke="gray" stroke-width="0.18"/>
    <polyline points="90.13,167.22 91.49,168.02 91.54,169.03 102.95,169.75 102.72,172.64 105.47,172.87 105.09,176.09 104.28,176.01 103.97,178.32 102.53,178.21 103.07,180.86 101.16,181.67 100.46,181.01 99.69,177.83 99.88,176.26 99.32,175.70 97.18,176.63 95.89,176.61 95.31,177.55 93.81,178.29 92.74,179.95 89.88,179.89 90.13,167.22" fill="none" stroke="gray" stroke-width="0.18"/>
    <polyline points="116.32,138.87 116.38,137.90 117.19,137.94 117.57,131.03 129.08,131.60 128.72,138.65 129.64,138.69 129.45,144.27 120.12,143.69 120.23,142.25 117.84,142.07 118.07,139.25 116.32,138.87" fill="none" stroke="gray" stroke-width="0.18"/>
    <polyline points="102.88,161.38 103.33,156.27 109.05,156.34 109.14,155.50 114.70,155.95 114.44,158.80 115.39,158.88 115.28,160.13 115.14,161.72 114.20,161.65 113.71,167.31 110.92,167.03 111.23,163.76 108.37,163.50 108.47,162.34 102.88,161.38" fill="none" stroke="gray" stroke-width="0.18"/>
    <polyline points="53.00,137.01 53.79,123.30 62.81,123.62 62.49,137.49 53.00,137.01" fill="none" stroke="gray" stroke-width="0.18"/>
    <polyline points="101.12,150.06 101.82,141.69 102.29,141.75 102.55,138.95 102.09,138.91 102.16,137.97 110.70,138.47 110.41,141.44 112.28,141.60 112.04,144.42 112.98,144.50 112.73,147.29 109.88,147.03 109.71,148.90 106.71,148.67 106.63,150.09 103.91,149.88 103.87,150.34 101.12,150.06" fill="none" stroke="gray" stroke-width="0.18"/>
    <polyline points="81.27,144.58 81.47,142.82 82.88,143.00 85.00,135.36 85.31,132.13 92.59,132.44 92.39,134.34 91.34,134.30 91.16,135.75 91.97,138.03 91.31,138.48 91.12,145.56 81.27,144.58" fill="none" stroke="gray" stroke-width="0.18"/>
    <polyline points="101.16,181.67 103.07,180.86 102.53,178.21 103.97,178.32 104.28,176.01 105.09,176.09 105.47,172.87 107.33,173.05 107.11,175.13 109.58,175.39 109.81,178.27 112.76,178.51 112.54,181.40 114.40,181.51 113.26,185.90 107.73,187.13 106.64,186.63 106.25,184.93 104.04,182.57 101.16,181.67" fill="none" stroke="gray" stroke-width="0.18"/>
    <polyline points="76.53,118.44 76.83,109.25 86.12,109.60 86.03,113.32 87.38,113.33 87.86,113.83 87.73,119.63 76.53,118.44" fill="none" stroke="gray" stroke-width="0.18"/>
    <polyline points="61.02,137.47 69.08,137.63 69.05,138.81 71.65,139.10 71.50,140.49 70.57,140.39 69.76,148.66 60.77,147.93 61.02,137.47" fill="none" stroke="gray" stroke-width="0.18"/>
    <polyline points="120.03,144.91 120.12,143.69 130.86,144.35 130.76,147.15 132.17,147.21 132.10,149.67 128.96,149.76 129.10,153.03 126.27,152.59 126.20,154.02 120.52,153.61 121.39,145.18 120.03,144.91" fill="none" stroke="gray" stroke-width="0.18"/>
    <polyline points="144.51,107.79 144.52,105.04 146.57,105.05 146.56,100.38 158.21,100.37 158.23,107.80 150.92,107.81 150.92,106.89 149.24,106.88 149.13,107.81 144.51,107.79" fill="none" stroke="gray" stroke-width="0.18"/>
  </g>
  <g inkscape:groupmode="layer" inkscape:label="state_outline" id="state_outline">
    <polyline points="55.61,80.44 51.70,163.07 53.68,161.81 55.03,163.36 56.95,164.32 60.87,163.01 61.42,165.13 63.53,165.79 64.36,166.69 66.02,170.47 66.45,173.22 69.96,174.47 72.69,174.01 75.05,174.96 75.76,176.35 76.99,176.98 77.52,178.48 80.08,179.35 80.95,177.76 83.64,177.04 84.93,177.96 87.65,178.67 89.24,180.58 90.43,179.59 92.75,179.95 93.81,178.29 95.08,177.75 95.92,176.60 97.37,176.60 99.42,175.72 100.46,181.01 101.55,181.92 104.10,182.61 106.25,184.93 106.98,186.90 108.08,187.11 113.33,185.84 114.32,181.58 117.21,180.76 116.93,176.71 116.13,175.01 118.00,173.45 118.13,171.50 120.81,167.51 121.61,167.36 122.27,168.54 123.41,168.71 124.23,170.44 123.48,171.64 124.07,172.25 125.25,171.80 126.02,170.05 127.64,170.73 127.15,169.51 127.60,167.88 126.39,165.81 128.06,165.30 127.85,162.60 129.44,161.15 129.65,159.75 132.49,159.84 133.04,157.17 135.35,155.35 136.35,155.77 137.33,157.51 139.95,156.11 141.23,156.07 142.05,154.64 143.35,154.19 147.29,149.65 148.32,148.79 149.59,148.61 149.97,146.37 150.77,145.88 149.82,144.02 150.90,142.93 150.93,141.42 151.74,140.81 151.35,139.23 152.61,139.32 153.02,134.07 153.74,133.34 153.84,131.61 156.34,126.48 156.16,124.62 155.53,124.05 156.43,121.34 154.69,117.92 155.67,116.76 156.90,116.93 158.30,116.14 157.95,62.37 140.78,66.13 113.19,82.81 106.44,82.69 97.27,76.52 96.31,73.44 88.89,80.44 55.61,80.44" fill="none" stroke="black" stroke-width="0.7"/>
  </g>
  <g inkscape:groupmode="layer" inkscape:label="locator" id="locator">
    <polygon points="184.61,29.82 185.40,29.75 185.54,30.22 185.73,30.91 185.80,31.06 185.86,31.14 185.85,31.20 185.90,31.23 185.83,31.30 185.84,31.37 185.81,31.47 185.88,31.63 185.86,31.78 185.93,31.93 185.70,31.96 184.70,32.06 184.69,32.13 184.81,32.23 184.80,32.32 184.84,32.36 184.77,32.45 184.71,32.48 184.58,32.40 184.56,32.26 184.52,32.25 184.48,32.36 184.48,32.46 184.35,32.44 184.25,31.59 184.27,30.53 184.28,29.91 184.23,29.86 184.61,29.82" fill="none" stroke="gray" stroke-width="0.1"/>
    <polygon points="174.96,28.48 174.52,31.62 173.57,31.48 173.06,31.19 171.95,30.53 172.02,30.42 172.11,30.41 172.15,30.37 172.14,30.26 172.08,30.25 172.09,30.04 172.20,29.98 172.23,29.90 172.23,29.77 172.31,29.68 172.39,29.66 172.45,29.60 172.38,29.50 172.35,29.35 172.29,29.24 172.31,29.17 172.35,29.10 172.36,29.00 172.34,28.89 172.38,28.56 172.55,28.57 172.59,28.65 172.63,28.65 172.69,28.57 172.78,28.12 174.32,28.39 174.96,28.48" fill="none" stroke="gray" stroke-width="0.1"/>
    <polygon points="181.38,29.15 183.30,29.08 183.34,29.18 183.28,29.26 183.21,29.36 183.50,29.35 183.49,29.45 183.43,29.49 183.42,29.57 183.34,29.67 183.36,29.81 183.32,29.91 183.28,29.92 183.31,29.97 183.24,30.02 183.21,30.12 183.17,30.14 183.18,30.25 183.10,30.29 183.10,30.32 183.01,30.42 183.04,30.48 182.97,30.57 182.90,30.75 182.99,30.82 182.95,30.87 182.98,30.98 182.95,31.06 181.81,31.09 181.61,31.10 181.60,30.80 181.54,30.78 181.45,30.81 181.40,30.76 181.41,29.77 181.31,29.15 181.38,29.15" fill="none" stroke="gray" stroke-width="0.1"/>
    <polygon points="169.63,24.47 169.97,24.57 170.50,24.72 170.91,24.83 170.67,25.77 170.49,26.46 170.91,27.08 171.32,27.69 171.64,28.17 171.88,28.53 172.31,29.17 172.29,29.24 172.35,29.35 172.38,29.50 172.45,29.60 172.39,29.66 172.31,29.68 172.23,29.77 172.23,29.90 172.20,29.98 172.09,30.04 172.08,30.25 172.14,30.26 172.15,30.37 172.11,30.41 172.02,30.42 171.40,30.34 170.90,30.28 170.86,30.20 170.88,30.08 170.88,29.94 170.83,29.83 170.72,29.67 170.57,29.50 170.53,29.53 170.47,29.49 170.49,29.44 170.44,29.31 170.33,29.31 170.16,29.18 170.15,29.11 170.05,29.00 169.91,28.97 169.80,28.90 169.65,28.88 169.59,28.79 169.65,28.64 169.63,28.61 169.67,28.51 169.58,28.39 169.60,28.28 169.56,28.27 169.52,28.15 169.47,28.12 169.47,28.05 169.36,27.79 169.30,27.70 169.34,27.52 169.36,27.54 169.42,27.45 169.39,27.34 169.31,27.33 169.24,27.21 169.22,27.14 169.25,27.07 169.22,26.97 169.26,26.83 169.34,26.85 169.37,26.65 169.33,26.66 169.29,26.75 169.20,26.75 169.13,26.65 169.15,26.52 169.11,26.40 169.05,26.31 169.02,26.23 168.94,26.05 168.97,26.02 168.97,25.82 169.03,25.73 169.04,25.57 168.98,25.39 168.90,25.27 168.91,25.17 169.08,24.97 169.13,24.89 169.13,24.83 169.21,24.68 169.22,24.52 169.19,24.47 169.25,24.36 169.63,24.47" fill="none" stroke="gray" stroke-width="0.1"/>
    <polygon points="175.73,26.32 176.64,26.43 177.34,26.49 178.17,26.55 178.14,27.11 178.03,28.80 177.61,28.76 177.02,28.72 175.91,28.61 175.67,28.57 174.96,28.48 175.05,27.83 175.05,27.77 175.12,27.30 175.26,26.26 175.73,26.32" fill="none" stroke="gray" stroke-width="0.1"/>
    <polygon points="190.06,24.91 190.56,24.80 190.56,24.81 190.65,25.13 190.63,25.18 190.60,25.18 190.43,25.27 190.22,25.31 190.15,25.41 190.05,25.46 189.95,25.55 189.91,25.49 189.99,25.41 189.96,25.37 189.88,24.95 190.06,24.91" fill="none" stroke="gray" stroke-width="0.1"/>
    <polygon points="189.38,26.36 189.36,26.43 189.32,26.48 189.35,26.56 189.43,26.63 189.47,26.76 189.59,26.88 189.64,26.88 189.70,27.07 189.42,27.12 189.23,26.44 189.29,26.36 189.38,26.36" fill="none" stroke="gray" stroke-width="0.1"/>
    <polygon points="188.80,26.95 188.86,26.99 188.82,27.06 188.77,26.99 188.80,26.95" fill="none" stroke="gray" stroke-width="0.1"/>
    <polygon points="185.70,31.96 185.93,31.93 186.01,32.08 186.67,32.04 187.28,31.99 187.32,32.11 187.38,32.10 187.39,31.98 187.35,31.88 187.39,31.83 187.51,31.86 187.64,31.86 187.70,32.10 187.81,32.36 188.00,32.69 188.28,33.03 188.25,33.06 188.29,33.23 188.41,33.41 188.62,33.78 188.67,33.89 188.69,34.02 188.71,34.48 188.66,34.49 188.64,34.64 188.66,34.68 188.58,34.80 188.54,34.78 188.45,34.84 188.29,34.89 188.24,34.84 188.25,34.75 188.10,34.53 188.00,34.50 187.93,34.54 187.85,34.42 187.82,34.31 187.70,34.20 187.66,34.13 187.66,34.01 187.60,33.99 187.62,34.06 187.57,34.09 187.37,33.81 187.30,33.75 187.42,33.51 187.32,33.53 187.27,33.61 187.19,33.51 187.23,33.20 187.21,32.95 187.15,32.90 187.12,32.82 187.02,32.81 186.89,32.70 186.80,32.65 186.78,32.57 186.72,32.55 186.66,32.47 186.46,32.37 186.30,32.42 186.32,32.50 186.27,32.49 186.08,32.62 185.87,32.67 185.87,32.61 185.81,32.54 185.54,32.40 185.35,32.35 185.19,32.35 185.06,32.37 184.77,32.45 184.84,32.36 184.80,32.32 184.81,32.23 184.69,32.13 184.70,32.06 185.70,31.96" fill="none" stroke="gray" stroke-width="0.1"/>
    <polygon points="186.53,29.60 186.45,29.73 186.45,29.79 186.61,29.89 186.66,29.88 186.74,29.99 186.77,30.05 186.86,30.15 186.97,30.21 187.05,30.30 187.18,30.38 187.19,30.44 187.28,30.53 187.42,30.60 187.46,30.69 187.49,30.80 187.56,30.83 187.65,30.97 187.67,31.06 187.79,31.09 187.70,31.30 187.70,31.40 187.66,31.49 187.67,31.58 187.62,31.63 187.64,31.86 187.51,31.86 187.39,31.83 187.35,31.88 187.39,31.98 187.38,32.10 187.32,32.11 187.28,31.99 186.67,32.04 186.01,32.08 185.93,31.93 185.86,31.78 185.88,31.63 185.81,31.47 185.84,31.37 185.83,31.30 185.90,31.23 185.85,31.20 185.86,31.14 185.80,31.06 185.73,30.91 185.54,30.22 185.40,29.75 185.98,29.68 186.30,29.64 186.53,29.60" fill="none" stroke="gray" stroke-width="0.1"/>
    <polygon points="173.32,21.40 173.20,21.95 173.29,22.13 173.26,22.27 173.31,22.35 173.38,22.39 173.38,22.43 173.49,22.61 173.50,22.67 173.59,22.75 173.58,22.78 173.69,22.80 173.60,22.99 173.56,23.12 173.59,23.21 173.51,23.26 173.52,23.32 173.49,23.38 173.56,23.45 173.67,23.39 173.72,23.34 173.78,23.41 173.76,23.45 173.78,23.56 173.82,23.69 173.86,23.73 173.84,23.84 173.88,23.89 173.96,23.91 173.98,24.10 174.02,24.14 174.06,24.09 174.19,24.12 174.28,24.09 174.33,24.12 174.43,24.11 174.44,24.15 174.53,24.14 174.64,24.04 174.68,24.15 174.74,24.21 174.53,25.58 174.07,25.51 173.31,25.37 172.11,25.12 172.33,24.12 172.42,23.95 172.40,23.90 172.33,23.87 172.32,23.79 172.44,23.62 172.48,23.61 172.54,23.54 172.55,23.48 172.61,23.43 172.65,23.34 172.76,23.19 172.75,23.11 172.67,23.05 172.64,22.95 172.66,22.86 172.63,22.75 172.64,22.71 172.80,21.98 172.96,21.32 173.32,21.40" fill="none" stroke="gray" stroke-width="0.1"/>
    <polygon points="182.89,25.72 183.65,25.68 184.05,25.65 184.04,25.76 184.12,25.88 184.20,26.08 184.32,27.40 184.28,27.50 184.34,27.62 184.36,27.71 184.31,27.80 184.31,27.87 184.24,28.00 184.19,28.01 184.21,28.08 184.18,28.11 184.16,28.25 184.18,28.28 184.13,28.37 184.18,28.46 184.00,28.53 183.99,28.59 184.04,28.66 183.98,28.71 183.82,28.63 183.77,28.64 183.71,28.75 183.73,28.78 183.66,28.78 183.55,28.62 183.58,28.58 183.54,28.48 183.53,28.39 183.38,28.28 183.34,28.30 183.29,28.23 183.15,28.12 183.15,28.03 183.21,27.88 183.20,27.83 183.23,27.76 183.17,27.73 183.08,27.71 183.03,27.76 182.99,27.73 182.96,27.55 182.81,27.44 182.67,27.30 182.61,27.13 182.60,27.02 182.63,26.93 182.63,26.83 182.75,26.76 182.75,26.68 182.81,26.62 182.81,26.52 182.73,26.45 182.76,26.35 182.92,26.31 183.04,26.23 183.05,26.14 183.10,26.10 183.11,26.00 183.10,25.93 183.00,25.88 182.99,25.82 182.89,25.72" fill="none" stroke="gray" stroke-width="0.1"/>
    <polygon points="184.83,25.99 185.32,25.93 185.32,25.97 185.40,26.64 185.49,27.41 185.46,27.44 185.51,27.59 185.44,27.60 185.36,27.66 185.25,27.65 185.27,27.76 185.20,27.82 185.18,27.89 185.10,27.92 185.08,28.07 185.03,28.11 184.93,28.07 184.91,28.01 184.82,28.09 184.83,28.15 184.74,28.18 184.70,28.13 184.60,28.19 184.57,28.25 184.45,28.18 184.40,28.20 184.36,28.17 184.32,28.21 184.21,28.23 184.18,28.28 184.16,28.25 184.18,28.11 184.21,28.08 184.19,28.01 184.24,28.00 184.31,27.87 184.31,27.80 184.36,27.71 184.34,27.62 184.28,27.50 184.32,27.40 184.20,26.08 184.25,26.11 184.37,26.10 184.49,26.02 184.83,25.99" fill="none" stroke="gray" stroke-width="0.1"/>
    <polygon points="182.57,25.19 182.63,25.18 182.64,25.27 182.70,25.32 182.65,25.39 182.67,25.51 182.71,25.60 182.86,25.66 182.89,25.72 182.99,25.82 183.00,25.88 183.10,25.93 183.11,26.00 183.10,26.10 183.05,26.14 183.04,26.23 182.92,26.31 182.76,26.35 182.73,26.45 182.81,26.52 182.81,26.62 182.75,26.68 182.75,26.76 182.63,26.83 182.63,26.93 182.58,26.92 182.49,26.81 182.45,26.81 181.85,26.85 181.27,26.87 180.80,26.86 180.75,26.79 180.77,26.65 180.73,26.52 180.73,26.38 180.66,26.33 180.65,26.25 180.67,26.18 180.65,26.09 180.59,26.05 180.52,25.80 180.44,25.67 180.48,25.59 180.49,25.48 180.52,25.44 180.47,25.39 180.49,25.29 180.46,25.24 180.52,25.23 182.57,25.19" fill="none" stroke="gray" stroke-width="0.1"/>
    <polygon points="178.20,27.11 180.99,27.19 181.04,27.24 181.17,27.28 181.08,27.45 181.13,27.50 181.20,27.63 181.30,27.66 181.31,28.87 178.90,28.84 178.03,28.80 178.14,27.11 178.20,27.11" fill="none" stroke="gray" stroke-width="0.1"/>
    <polygon points="185.90,27.55 186.01,27.62 186.07,27.57 186.24,27.59 186.28,27.53 186.33,27.50 186.37,27.59 186.42,27.60 186.49,27.67 186.50,27.84 186.57,27.94 186.65,28.01 186.68,28.07 186.77,28.12 186.83,28.12 186.68,28.30 186.53,28.40 186.54,28.44 186.48,28.49 186.48,28.54 186.40,28.57 186.38,28.64 186.16,28.75 186.15,28.76 185.77,28.80 185.44,28.82 185.36,28.83 184.87,28.86 184.31,28.93 184.21,28.91 184.23,29.01 183.68,29.05 183.62,29.06 183.64,28.99 183.71,29.01 183.73,28.78 183.71,28.75 183.77,28.64 183.82,28.63 183.98,28.71 184.04,28.66 183.99,28.59 184.00,28.53 184.18,28.46 184.13,28.37 184.18,28.28 184.21,28.23 184.32,28.21 184.36,28.17 184.40,28.20 184.45,28.18 184.57,28.25 184.60,28.19 184.70,28.13 184.74,28.18 184.83,28.15 184.82,28.09 184.91,28.01 184.93,28.07 185.03,28.11 185.08,28.07 185.10,27.92 185.18,27.89 185.20,27.82 185.27,27.76 185.25,27.65 185.36,27.66 185.44,27.60 185.51,27.59 185.46,27.44 185.49,27.41 185.65,27.39 185.75,27.50 185.76,27.55 185.90,27.55" fill="none" stroke="gray" stroke-width="0.1"/>
    <polygon points="181.81,31.09 182.95,31.06 182.99,31.12 182.96,31.15 182.96,31.26 183.04,31.33 183.05,31.49 183.00,31.62 182.90,31.71 182.87,31.83 182.83,31.82 182.83,32.03 182.77,32.04 182.81,32.15 182.78,32.19 183.68,32.14 183.64,32.32 183.73,32.44 183.76,32.53 183.82,32.58 183.68,32.67 183.67,32.72 183.79,32.75 183.84,32.66 183.94,32.74 183.94,32.81 183.88,32.85 183.77,32.83 183.79,32.88 183.76,32.96 183.86,33.02 184.01,33.03 184.06,33.11 184.11,33.12 184.04,33.22 183.95,33.21 183.87,33.12 183.69,33.08 183.68,32.98 183.60,33.02 183.61,33.10 183.57,33.17 183.51,33.19 183.46,33.11 183.35,33.11 183.31,33.20 183.24,33.23 183.15,33.18 183.09,33.18 183.02,33.04 182.91,32.99 182.87,33.00 182.82,32.89 182.69,32.91 182.69,32.84 182.57,32.91 182.58,32.96 182.49,33.01 182.34,32.99 182.17,32.92 182.04,32.90 181.78,32.93 181.75,32.95 181.70,32.90 181.81,32.70 181.77,32.59 181.81,32.53 181.79,32.46 181.83,32.40 181.88,32.25 181.87,32.13 181.73,31.91 181.73,31.79 181.62,31.67 181.61,31.10 181.81,31.09" fill="none" stroke="gray" stroke-width="0.1"/>
    <polygon points="190.84,24.12 190.79,24.10 190.78,24.04 190.70,24.00 190.48,23.29 190.37,22.95 190.51,22.83 190.48,22.80 190.52,22.70 190.57,22.65 190.55,22.62 190.59,22.55 190.55,22.46 190.55,22.31 190.59,22.25 190.57,22.09 190.74,21.60 190.81,21.60 190.84,21.70 190.90,21.72 191.00,21.63 191.08,21.61 191.12,21.55 191.24,21.61 191.33,21.66 191.51,22.25 191.55,22.40 191.69,22.40 191.69,22.46 191.74,22.51 191.73,22.57 191.81,22.64 191.87,22.60 192.00,22.76 191.95,22.87 191.89,22.86 191.87,22.93 191.81,22.93 191.82,22.98 191.75,23.00 191.67,23.14 191.62,23.07 191.58,23.08 191.63,23.16 191.55,23.23 191.51,23.16 191.48,23.21 191.38,23.24 191.35,23.16 191.30,23.20 191.33,23.25 191.31,23.38 191.33,23.41 191.27,23.50 191.20,23.50 191.17,23.57 191.12,23.60 191.08,23.67 191.02,23.68 190.99,23.62 190.93,23.74 190.97,23.79 190.91,23.83 190.92,23.88 190.86,23.96 190.84,24.12" fill="none" stroke="gray" stroke-width="0.1"/>
    <polygon points="189.36,27.43 189.35,27.43 189.33,27.43 189.36,27.43" fill="none" stroke="gray" stroke-width="0.1"/>
    <polygon points="187.69,26.74 189.23,26.44 189.42,27.12 189.70,27.07 189.67,27.32 189.60,27.34 189.49,27.40 189.41,27.44 189.39,27.35 189.35,27.32 189.39,27.27 189.30,27.20 189.29,27.24 189.20,27.25 189.15,27.16 189.18,27.15 189.15,27.02 189.17,26.96 189.10,26.80 189.12,26.69 189.19,26.65 189.18,26.54 189.13,26.57 189.14,26.62 189.04,26.71 189.02,26.78 189.05,26.95 189.02,27.03 189.07,27.15 189.14,27.23 189.15,27.30 189.20,27.35 189.19,27.40 189.07,27.34 188.92,27.32 188.86,27.25 188.79,27.31 188.75,27.25 188.80,27.15 188.82,27.06 188.86,26.99 188.80,26.95 188.77,26.99 188.70,26.95 188.61,26.94 188.59,26.86 188.54,26.82 188.47,26.82 188.39,26.68 188.32,26.69 188.24,26.65 188.21,26.70 188.14,26.71 188.14,26.78 188.01,26.76 187.94,26.86 187.88,26.85 187.81,26.96 187.74,27.02 187.69,26.74" fill="none" stroke="gray" stroke-width="0.1"/>
    <polygon points="190.78,24.24 190.83,24.23 190.87,24.32 190.87,24.41 190.83,24.49 190.85,24.58 190.94,24.57 191.01,24.64 191.02,24.71 191.07,24.71 191.09,24.77 191.22,24.80 191.33,24.71 191.33,24.79 191.15,24.91 191.08,24.93 191.03,24.89 190.97,24.93 190.97,24.97 190.91,25.01 190.85,24.92 190.83,24.91 190.78,24.88 190.73,24.76 190.67,24.77 190.56,24.81 190.56,24.80 190.06,24.91 189.88,24.95 189.87,24.93 189.88,24.55 190.20,24.48 190.66,24.38 190.69,24.32 190.78,24.24" fill="none" stroke="gray" stroke-width="0.1"/>
    <polygon points="185.87,25.88 185.32,25.97 185.32,25.93 184.83,25.99 184.49,26.02 184.56,25.94 184.61,25.81 184.65,25.73 184.68,25.62 184.69,25.46 184.66,25.30 184.51,24.99 184.53,24.86 184.49,24.72 184.57,24.56 184.57,24.44 184.55,24.37 184.62,24.34 184.62,24.24 184.71,24.21 184.78,24.10 184.80,24.30 184.84,24.31 184.88,24.20 184.86,24.03 184.89,23.98 184.99,23.94 184.94,23.83 185.00,23.72 185.09,23.71 185.19,23.76 185.29,23.75 185.35,23.83 185.42,23.82 185.55,23.88 185.59,23.87 185.68,23.98 185.63,24.05 185.69,24.13 185.73,24.22 185.73,24.43 185.66,24.49 185.65,24.60 185.56,24.65 185.52,24.78 185.55,24.83 185.65,24.86 185.72,24.78 185.78,24.63 185.91,24.55 185.99,24.59 186.04,24.66 186.11,24.88 186.14,25.00 186.20,25.13 186.19,25.34 186.13,25.38 186.11,25.30 186.07,25.33 186.04,25.51 185.97,25.58 185.96,25.71 185.87,25.83 185.87,25.88" fill="none" stroke="gray" stroke-width="0.1"/>
    <polygon points="184.78,23.76 184.80,23.83 184.75,23.85 184.76,23.75 184.78,23.76" fill="none" stroke="gray" stroke-width="0.1"/>
    <polygon points="184.01,24.20 183.94,24.14 183.97,24.06 183.88,24.06 183.91,23.98 183.90,23.88 183.82,23.82 183.77,23.75 183.60,23.71 183.55,23.73 183.38,23.67 182.97,23.58 182.92,23.49 182.85,23.46 183.00,23.39 183.06,23.32 183.22,23.28 183.33,23.19 183.38,23.19 183.41,23.13 183.53,23.04 183.58,22.96 183.67,22.91 183.76,22.94 183.62,23.12 183.59,23.18 183.60,23.29 183.67,23.20 183.80,23.20 183.91,23.25 184.01,23.39 184.07,23.41 184.16,23.38 184.19,23.41 184.28,23.42 184.48,23.27 184.58,23.25 184.73,23.24 184.82,23.19 184.89,23.17 184.92,23.33 185.00,23.34 185.07,23.31 185.11,23.34 185.15,23.29 185.26,23.26 185.29,23.45 185.35,23.53 185.43,23.54 185.43,23.48 185.50,23.47 185.55,23.52 185.52,23.57 185.31,23.56 185.21,23.60 185.09,23.55 185.07,23.61 185.09,23.66 185.04,23.65 184.96,23.59 184.83,23.56 184.76,23.56 184.71,23.64 184.61,23.67 184.50,23.66 184.46,23.70 184.45,23.76 184.34,23.82 184.34,23.75 184.28,23.74 184.27,23.82 184.18,23.83 184.14,23.87 184.09,24.00 184.00,24.18 184.01,24.20" fill="none" stroke="gray" stroke-width="0.1"/>
    <polygon points="183.41,22.64 183.32,22.72 183.27,22.73 183.27,22.67 183.50,22.52 183.46,22.62 183.41,22.64" fill="none" stroke="gray" stroke-width="0.1"/>
    <polygon points="182.23,23.41 182.20,23.39 182.12,23.44 182.14,23.77 182.12,23.80 182.01,23.85 181.92,23.97 181.92,24.05 181.96,24.06 182.01,24.13 181.97,24.21 181.98,24.31 181.96,24.51 182.07,24.61 182.15,24.62 182.20,24.68 182.32,24.73 182.34,24.80 182.46,24.89 182.53,24.91 182.61,25.03 182.60,25.12 182.63,25.18 182.57,25.19 180.52,25.23 180.52,24.23 180.43,24.16 180.36,24.06 180.47,23.94 180.48,23.87 180.47,23.65 180.42,23.59 180.39,23.47 180.40,23.32 180.38,23.30 180.37,22.94 180.30,22.76 180.27,22.65 180.27,22.43 180.29,22.35 180.24,22.18 181.01,22.18 181.01,21.97 181.08,21.97 181.13,22.01 181.19,22.30 181.23,22.33 181.35,22.34 181.36,22.37 181.51,22.37 181.52,22.43 181.65,22.42 181.65,22.39 181.74,22.36 181.83,22.37 181.92,22.41 181.95,22.47 182.01,22.46 182.06,22.58 182.08,22.53 182.18,22.50 182.20,22.55 182.31,22.58 182.31,22.63 182.37,22.67 182.48,22.64 182.55,22.58 182.64,22.55 182.67,22.62 182.74,22.60 182.81,22.62 182.90,22.60 183.01,22.66 183.10,22.64 183.10,22.67 182.98,22.75 182.80,22.82 182.69,22.88 182.54,23.03 182.47,23.12 182.37,23.23 182.20,23.37 182.23,23.41" fill="none" stroke="gray" stroke-width="0.1"/>
    <polygon points="184.11,29.87 184.23,29.86 184.28,29.91 184.27,30.53 184.25,31.59 184.35,32.44 184.30,32.47 184.18,32.47 184.13,32.43 184.02,32.47 183.86,32.54 183.82,32.58 183.76,32.53 183.73,32.44 183.64,32.32 183.68,32.14 182.78,32.19 182.81,32.15 182.77,32.04 182.83,32.03 182.83,31.82 182.87,31.83 182.90,31.71 183.00,31.62 183.05,31.49 183.04,31.33 182.96,31.26 182.96,31.15 182.99,31.12 182.95,31.06 182.98,30.98 182.95,30.87 182.99,30.82 182.90,30.75 182.97,30.57 183.04,30.48 183.01,30.42 183.10,30.32 183.10,30.29 183.18,30.25 183.17,30.14 183.21,30.12 183.24,30.02 183.31,29.97 183.28,29.92 184.11,29.87" fill="none" stroke="gray" stroke-width="0.1"/>
    <polygon points="182.45,26.81 182.49,26.81 182.58,26.92 182.63,26.93 182.60,27.02 182.61,27.13 182.67,27.30 182.81,27.44 182.96,27.55 182.99,27.73 183.03,27.76 183.08,27.71 183.17,27.73 183.23,27.76 183.20,27.83 183.21,27.88 183.15,28.03 183.15,28.12 183.29,28.23 183.34,28.30 183.38,28.28 183.53,28.39 183.54,28.48 183.58,28.58 183.55,28.62 183.66,28.78 183.73,28.78 183.71,29.01 183.64,28.99 183.62,29.06 183.59,29.06 183.57,29.06 183.58,29.20 183.50,29.35 183.21,29.36 183.28,29.26 183.34,29.18 183.30,29.08 181.38,29.15 181.31,29.15 181.31,28.87 181.30,27.66 181.20,27.63 181.13,27.50 181.08,27.45 181.17,27.28 181.04,27.24 180.99,27.19 180.89,27.04 180.80,26.86 181.27,26.87 181.85,26.85 182.45,26.81" fill="none" stroke="gray" stroke-width="0.1"/>
    <polygon points="177.72,22.05 177.67,22.68 177.57,23.74 177.53,24.26 177.53,24.26 176.80,24.19 175.56,24.04 174.79,23.92 174.74,24.21 174.68,24.15 174.64,24.04 174.53,24.14 174.44,24.15 174.43,24.11 174.33,24.12 174.28,24.09 174.19,24.12 174.06,24.09 174.02,24.14 173.98,24.10 173.96,23.91 173.88,23.89 173.84,23.84 173.86,23.73 173.82,23.69 173.78,23.56 173.76,23.45 173.78,23.41 173.72,23.34 173.67,23.39 173.56,23.45 173.49,23.38 173.52,23.32 173.51,23.26 173.59,23.21 173.56,23.12 173.60,22.99 173.69,22.80 173.58,22.78 173.59,22.75 173.50,22.67 173.49,22.61 173.38,22.43 173.38,22.39 173.31,22.35 173.26,22.27 173.29,22.13 173.20,21.95 173.32,21.40 174.97,21.71 175.72,21.83 177.72,22.05" fill="none" stroke="gray" stroke-width="0.1"/>
    <polygon points="177.73,25.40 178.42,25.45 179.68,25.50 179.70,25.53 179.90,25.63 179.95,25.58 180.01,25.59 180.20,25.60 180.42,25.70 180.44,25.78 180.52,25.80 180.59,26.05 180.65,26.09 180.67,26.18 180.65,26.25 180.66,26.33 180.73,26.38 180.73,26.52 180.77,26.65 180.75,26.79 180.80,26.86 180.89,27.04 180.99,27.19 178.20,27.11 178.14,27.11 178.17,26.55 177.34,26.49 177.43,25.37 177.73,25.40" fill="none" stroke="gray" stroke-width="0.1"/>
    <polygon points="172.11,25.12 173.31,25.37 172.78,28.12 172.69,28.57 172.63,28.65 172.59,28.65 172.55,28.57 172.38,28.56 172.34,28.89 172.36,29.00 172.35,29.10 172.31,29.17 171.88,28.53 171.64,28.17 171.32,27.69 170.91,27.08 170.49,26.46 170.67,25.77 170.91,24.83 171.43,24.97 172.11,25.12" fill="none" stroke="gray" stroke-width="0.1"/>
    <polygon points="190.37,22.95 190.48,23.29 190.70,24.00 190.78,24.04 190.79,24.10 190.84,24.12 190.83,24.23 190.78,24.24 190.69,24.32 190.66,24.38 190.20,24.48 190.16,24.45 190.14,24.37 190.17,24.33 190.14,24.25 190.12,24.02 190.16,23.89 190.16,23.76 190.18,23.71 190.15,23.58 190.26,23.49 190.30,23.38 190.24,23.30 190.27,23.20 190.25,23.15 190.27,23.00 190.36,22.99 190.37,22.95" fill="none" stroke="gray" stroke-width="0.1"/>
    <polygon points="189.70,25.52 189.85,25.56 189.84,25.73 189.78,25.79 189.76,25.88 189.89,25.89 189.91,25.95 189.93,26.26 189.85,26.51 189.78,26.59 189.74,26.75 189.68,26.66 189.55,26.65 189.37,26.56 189.34,26.48 189.34,26.47 189.36,26.43 189.38,26.36 189.48,26.29 189.48,26.25 189.58,26.13 189.59,26.07 189.45,25.99 189.43,25.92 189.38,25.92 189.36,25.85 189.40,25.74 189.35,25.69 189.43,25.56 189.44,25.49 189.48,25.44 189.70,25.52" fill="none" stroke="gray" stroke-width="0.1"/>
    <polygon points="175.67,28.57 175.91,28.61 177.02,28.72 177.61,28.76 177.59,29.04 177.57,29.04 177.47,30.43 177.42,30.99 177.37,31.55 175.71,31.40 175.69,31.45 175.74,31.52 174.95,31.43 174.92,31.68 174.52,31.62 174.96,28.48 175.67,28.57" fill="none" stroke="gray" stroke-width="0.1"/>
    <polygon points="189.55,23.33 189.58,23.44 189.58,23.55 189.64,23.63 189.66,23.74 189.64,23.86 189.71,24.00 189.70,24.05 189.78,24.13 189.86,24.50 189.88,24.55 189.87,24.93 189.88,24.95 189.96,25.37 189.99,25.41 189.91,25.49 189.95,25.55 190.14,25.55 190.17,25.51 190.31,25.47 190.39,25.43 190.49,25.32 190.51,25.38 190.58,25.39 190.46,25.50 190.17,25.70 190.04,25.76 189.96,25.77 189.90,25.82 189.84,25.73 189.85,25.56 189.70,25.52 189.48,25.44 189.46,25.41 189.39,25.42 189.30,25.34 189.29,25.26 189.23,25.21 189.20,25.22 189.14,25.15 187.36,25.50 187.33,25.36 187.33,25.35 187.55,25.15 187.58,25.07 187.65,25.00 187.60,24.92 187.56,24.90 187.51,24.76 187.73,24.65 187.94,24.62 188.03,24.61 188.13,24.66 188.18,24.62 188.35,24.59 188.45,24.53 188.54,24.41 188.61,24.39 188.58,24.24 188.60,24.15 188.50,24.10 188.50,24.03 188.64,23.91 188.68,23.81 188.82,23.59 188.98,23.46 189.24,23.41 189.55,23.33" fill="none" stroke="gray" stroke-width="0.1"/>
    <polygon points="187.34,28.60 187.64,28.56 187.99,28.50 189.57,28.19 189.67,28.39 189.55,28.40 189.53,28.43 189.39,28.49 189.38,28.53 189.28,28.56 189.29,28.60 189.41,28.54 189.43,28.56 189.56,28.51 189.61,28.55 189.69,28.51 189.74,28.64 189.73,28.71 189.68,28.73 189.60,28.88 189.45,28.92 189.45,29.02 189.53,29.10 189.58,29.11 189.52,29.28 189.44,29.28 189.30,29.32 189.21,29.38 189.07,29.51 188.98,29.67 188.95,29.86 188.84,29.84 188.69,29.91 188.08,29.47 187.58,29.55 187.58,29.48 187.49,29.40 187.45,29.44 187.44,29.38 186.88,29.44 186.76,29.48 186.68,29.54 186.53,29.60 186.30,29.64 185.98,29.68 185.98,29.55 186.07,29.52 186.09,29.43 186.19,29.33 186.31,29.31 186.41,29.21 186.52,29.17 186.60,29.03 186.65,28.98 186.67,29.04 186.83,28.90 186.92,28.91 186.96,28.80 187.03,28.76 187.03,28.63 187.34,28.60" fill="none" stroke="gray" stroke-width="0.1"/>
    <polygon points="180.24,22.18 180.29,22.35 180.27,22.43 180.27,22.65 180.30,22.76 180.37,22.94 180.38,23.30 180.40,23.32 180.39,23.47 180.42,23.59 180.47,23.65 180.48,23.87 177.57,23.74 177.67,22.68 177.72,22.05 180.24,22.18" fill="none" stroke="gray" stroke-width="0.1"/>
    <polygon points="187.05,25.56 187.17,26.31 187.12,26.35 187.16,26.40 187.17,26.49 187.13,26.63 187.13,26.84 186.99,27.05 186.94,27.08 186.89,27.05 186.85,27.14 186.80,27.14 186.77,27.25 186.79,27.32 186.75,27.38 186.68,27.30 186.62,27.44 186.65,27.53 186.60,27.56 186.60,27.64 186.49,27.67 186.42,27.60 186.37,27.59 186.33,27.50 186.28,27.53 186.24,27.59 186.07,27.57 186.01,27.62 185.90,27.55 185.76,27.55 185.75,27.50 185.65,27.39 185.49,27.41 185.40,26.64 185.32,25.97 185.87,25.88 186.04,25.93 186.10,25.97 186.14,25.92 186.24,26.00 186.30,26.02 186.48,25.92 186.60,25.92 186.70,25.79 186.86,25.67 187.05,25.56 187.05,25.56" fill="none" stroke="gray" stroke-width="0.1"/>
    <polygon points="178.90,28.84 181.31,28.87 181.31,29.15 181.41,29.77 181.40,30.76 181.22,30.70 181.17,30.63 181.06,30.58 181.03,30.63 180.91,30.63 180.88,30.60 180.77,30.65 180.73,30.62 180.63,30.65 180.54,30.73 180.50,30.68 180.41,30.64 180.31,30.64 180.28,30.58 180.16,30.70 180.12,30.63 180.07,30.65 180.03,30.61 179.92,30.56 179.84,30.63 179.81,30.56 179.74,30.55 179.70,30.48 179.62,30.46 179.56,30.51 179.52,30.46 179.43,30.46 179.33,30.41 179.24,30.42 179.21,30.31 179.07,30.30 179.01,30.31 178.91,30.20 178.88,30.21 178.92,29.12 178.12,29.08 177.59,29.04 177.61,28.76 178.03,28.80 178.90,28.84" fill="none" stroke="gray" stroke-width="0.1"/>
    <polygon points="170.30,22.24 170.34,22.25 170.40,22.33 170.41,22.40 170.39,22.57 170.56,22.68 170.75,22.64 170.86,22.66 170.97,22.72 170.97,22.76 171.20,22.74 171.24,22.78 171.36,22.79 171.46,22.77 171.64,22.76 171.79,22.79 171.85,22.76 172.64,22.95 172.67,23.05 172.75,23.11 172.76,23.19 172.65,23.34 172.61,23.43 172.55,23.48 172.54,23.54 172.48,23.61 172.44,23.62 172.32,23.79 172.33,23.87 172.40,23.90 172.42,23.95 172.33,24.12 172.11,25.12 171.43,24.97 170.91,24.83 170.50,24.72 169.97,24.57 169.63,24.47 169.25,24.36 169.21,24.28 169.23,24.10 169.27,23.98 169.25,23.87 169.32,23.79 169.39,23.66 169.49,23.52 169.56,23.40 169.74,22.96 169.75,22.89 169.85,22.71 169.95,22.44 169.97,22.28 170.02,22.19 170.19,22.16 170.24,22.24 170.30,22.24" fill="none" stroke="gray" stroke-width="0.1"/>
    <polygon points="187.33,25.36 187.36,25.50 189.14,25.15 189.20,25.22 189.23,25.21 189.29,25.26 189.30,25.34 189.39,25.42 189.46,25.41 189.48,25.44 189.44,25.49 189.43,25.56 189.35,25.69 189.40,25.74 189.36,25.85 189.38,25.92 189.43,25.92 189.45,25.99 189.59,26.07 189.58,26.13 189.48,26.25 189.48,26.29 189.38,26.36 189.29,26.36 189.23,26.44 187.69,26.74 187.26,26.81 187.17,26.31 187.05,25.56 187.05,25.56 187.12,25.52 187.33,25.35 187.33,25.36" fill="none" stroke="gray" stroke-width="0.1"/>
    <polygon points="190.85,24.92 190.91,25.01 190.83,25.04 190.85,24.92" fill="none" stroke="gray" stroke-width="0.1"/>
    <polygon points="190.67,24.77 190.73,24.76 190.78,24.88 190.83,24.91 190.78,24.91 190.76,25.00 190.78,25.12 190.63,25.18 190.65,25.13 190.56,24.81 190.67,24.77" fill="none" stroke="gray" stroke-width="0.1"/>
    <polygon points="186.68,29.54 186.76,29.48 186.88,29.44 187.44,29.38 187.45,29.44 187.49,29.40 187.58,29.48 187.58,29.55 188.08,29.47 188.69,29.91 188.61,29.95 188.53,30.06 188.46,30.22 188.46,30.33 188.40,30.44 188.30,30.46 188.29,30.53 188.19,30.62 188.14,30.71 188.05,30.76 187.96,30.86 187.96,30.90 187.87,30.96 187.79,31.09 187.67,31.06 187.65,30.97 187.56,30.83 187.49,30.80 187.46,30.69 187.42,30.60 187.28,30.53 187.19,30.44 187.18,30.38 187.05,30.30 186.97,30.21 186.86,30.15 186.77,30.05 186.74,29.99 186.66,29.88 186.61,29.89 186.45,29.79 186.45,29.73 186.53,29.60 186.68,29.54" fill="none" stroke="gray" stroke-width="0.1"/>
    <polygon points="177.57,23.74 180.48,23.87 180.47,23.94 180.36,24.06 180.43,24.16 180.52,24.23 180.52,25.23 180.46,25.24 180.49,25.29 180.47,25.39 180.52,25.44 180.49,25.48 180.48,25.59 180.44,25.67 180.52,25.80 180.44,25.78 180.42,25.70 180.20,25.60 180.01,25.59 179.95,25.58 179.90,25.63 179.70,25.53 179.68,25.50 178.42,25.45 177.73,25.40 177.43,25.37 177.53,24.26 177.53,24.26 177.57,23.74" fill="none" stroke="gray" stroke-width="0.1"/>
    <polygon points="184.23,29.01 184.21,28.91 184.31,28.93 184.87,28.86 185.36,28.83 185.44,28.82 185.77,28.80 186.15,28.76 186.16,28.75 187.03,28.63 187.03,28.76 186.96,28.80 186.92,28.91 186.83,28.90 186.67,29.04 186.65,28.98 186.60,29.03 186.52,29.17 186.41,29.21 186.31,29.31 186.19,29.33 186.09,29.43 186.07,29.52 185.98,29.55 185.98,29.68 185.40,29.75 184.61,29.82 184.23,29.86 184.11,29.87 183.28,29.92 183.32,29.91 183.36,29.81 183.34,29.67 183.42,29.57 183.43,29.49 183.49,29.45 183.50,29.35 183.58,29.20 183.57,29.06 183.59,29.06 183.62,29.06 183.68,29.05 184.23,29.01" fill="none" stroke="gray" stroke-width="0.1"/>
    <polygon points="178.12,29.08 178.92,29.12 178.88,30.21 178.91,30.20 179.01,30.31 179.07,30.30 179.21,30.31 179.24,30.42 179.33,30.41 179.43,30.46 179.52,30.46 179.56,30.51 179.62,30.46 179.70,30.48 179.74,30.55 179.81,30.56 179.84,30.63 179.92,30.56 180.03,30.61 180.07,30.65 180.12,30.63 180.16,30.70 180.28,30.58 180.31,30.64 180.41,30.64 180.50,30.68 180.54,30.73 180.63,30.65 180.73,30.62 180.77,30.65 180.88,30.60 180.91,30.63 181.03,30.63 181.06,30.58 181.17,30.63 181.22,30.70 181.40,30.76 181.45,30.81 181.54,30.78 181.60,30.80 181.61,31.10 181.62,31.67 181.73,31.79 181.73,31.91 181.87,32.13 181.88,32.25 181.83,32.40 181.79,32.46 181.81,32.53 181.77,32.59 181.81,32.70 181.70,32.90 181.75,32.95 181.67,32.96 181.42,33.04 181.33,33.00 181.31,32.90 181.25,32.97 181.20,32.95 181.18,33.03 181.23,33.07 181.24,33.17 181.15,33.28 181.00,33.42 180.71,33.56 180.68,33.54 180.59,33.58 180.59,33.54 180.46,33.57 180.41,33.50 180.37,33.51 180.50,33.66 180.41,33.70 180.32,33.67 180.30,33.77 180.19,33.87 180.08,34.06 180.00,34.26 179.95,34.25 179.93,34.32 179.99,34.30 179.96,34.45 179.92,34.45 179.92,34.53 179.96,34.58 179.97,34.75 180.03,34.80 180.04,34.91 180.08,35.00 179.93,35.06 179.86,34.98 179.75,34.96 179.59,34.96 179.45,34.86 179.35,34.85 179.28,34.78 179.17,34.75 179.10,34.68 179.06,34.51 178.98,34.41 178.99,34.32 178.95,34.23 178.97,34.15 178.91,34.06 178.86,34.05 178.78,33.97 178.75,33.87 178.69,33.78 178.58,33.70 178.54,33.53 178.49,33.48 178.44,33.34 178.42,33.23 178.36,33.15 178.26,33.08 178.24,33.03 178.15,32.98 178.08,32.85 177.87,32.81 177.74,32.81 177.64,32.76 177.61,32.82 177.49,32.83 177.40,32.94 177.33,33.12 177.30,33.12 177.23,33.22 177.15,33.22 177.03,33.13 176.74,32.96 176.69,32.89 176.58,32.81 176.51,32.64 176.52,32.50 176.45,32.38 176.44,32.27 176.39,32.21 176.22,32.09 176.13,31.96 176.06,31.90 175.98,31.78 175.87,31.71 175.80,31.56 175.74,31.52 175.69,31.45 175.71,31.40 177.37,31.55 177.42,30.99 177.47,30.43 177.57,29.04 177.59,29.04 178.12,29.08" fill="none" stroke="gray" stroke-width="0.1"/>
    <polygon points="174.07,25.51 174.53,25.58 174.44,26.14 175.26,26.26 175.12,27.30 175.05,27.77 175.05,27.83 174.96,28.48 174.32,28.39 172.78,28.12 173.31,25.37 174.07,25.51" fill="none" stroke="gray" stroke-width="0.1"/>
    <polygon points="190.25,23.15 190.27,23.20 190.24,23.30 190.30,23.38 190.26,23.49 190.15,23.58 190.18,23.71 190.16,23.76 190.16,23.89 190.12,24.02 190.14,24.25 190.17,24.33 190.14,24.37 190.16,24.45 190.20,24.48 189.88,24.55 189.86,24.50 189.78,24.13 189.70,24.05 189.71,24.00 189.64,23.86 189.66,23.74 189.64,23.63 189.58,23.55 189.58,23.44 189.55,23.33 189.95,23.24 190.25,23.15" fill="none" stroke="gray" stroke-width="0.1"/>
    <polygon points="189.60,27.34 189.67,27.32 189.63,27.42 189.58,27.47 189.57,27.60 189.53,27.82 189.46,27.88 189.42,27.81 189.42,27.64 189.49,27.40 189.60,27.34" fill="none" stroke="gray" stroke-width="0.1"/>
    <polygon points="189.35,27.43 189.36,27.43 189.33,27.43 189.35,27.43" fill="none" stroke="gray" stroke-width="0.1"/>
    <polygon points="188.19,26.80 188.45,26.94 188.47,26.82 188.54,26.82 188.59,26.86 188.61,26.94 188.70,26.95 188.77,26.99 188.82,27.06 188.80,27.15 188.75,27.19 188.73,27.27 188.76,27.33 188.87,27.29 188.91,27.37 189.07,27.37 189.13,27.44 189.26,27.49 189.24,27.65 189.31,27.76 189.27,27.83 189.27,27.90 189.34,27.93 189.29,28.01 189.18,27.94 189.17,27.98 189.26,28.02 189.48,27.99 189.57,28.19 187.99,28.50 187.64,28.56 187.34,28.60 187.03,28.63 186.16,28.75 186.38,28.64 186.40,28.57 186.48,28.54 186.48,28.49 186.54,28.44 186.53,28.40 186.68,28.30 186.83,28.12 186.83,28.17 186.90,28.25 186.98,28.29 187.04,28.28 187.11,28.19 187.18,28.24 187.28,28.19 187.46,28.05 187.49,28.08 187.55,28.02 187.54,27.92 187.57,27.83 187.64,27.73 187.65,27.63 187.72,27.51 187.73,27.38 187.82,27.44 187.89,27.45 187.93,27.40 187.98,27.18 188.04,27.22 188.20,26.96 188.19,26.80" fill="none" stroke="gray" stroke-width="0.1"/>
    <polygon points="172.96,21.32 172.80,21.98 172.64,22.71 172.63,22.75 172.66,22.86 172.64,22.95 171.85,22.76 171.79,22.79 171.64,22.76 171.46,22.77 171.36,22.79 171.24,22.78 171.20,22.74 170.97,22.76 170.97,22.72 170.86,22.66 170.75,22.64 170.56,22.68 170.39,22.57 170.41,22.40 170.40,22.33 170.34,22.25 170.30,22.24 170.24,22.24 170.19,22.16 170.13,22.12 170.06,22.13 170.01,22.07 170.04,22.00 170.10,21.97 170.06,21.84 170.10,21.54 170.08,21.49 170.10,21.28 170.06,21.18 170.08,21.01 170.15,20.92 170.20,20.99 170.33,21.10 170.43,21.13 170.53,21.19 170.63,21.19 170.66,21.25 170.75,21.27 170.77,21.40 170.82,21.41 170.78,21.57 170.77,21.72 170.81,21.71 170.81,21.58 170.85,21.46 170.94,21.36 170.91,21.29 170.93,21.21 170.92,21.10 170.96,21.04 170.96,20.95 170.91,20.92 170.87,20.84 170.90,20.79 172.96,21.32" fill="none" stroke="gray" stroke-width="0.1"/>
    <polygon points="170.81,21.16 170.86,21.15 170.83,21.25 170.78,21.20 170.81,21.16" fill="none" stroke="gray" stroke-width="0.1"/>
    <polygon points="170.74,20.98 170.80,20.92 170.83,21.02 170.79,21.09 170.72,21.05 170.74,20.98" fill="none" stroke="gray" stroke-width="0.1"/>
    <polygon points="187.17,26.31 187.26,26.81 187.69,26.74 187.74,27.02 187.81,26.96 187.88,26.85 187.94,26.86 188.01,26.76 188.14,26.78 188.14,26.71 188.21,26.70 188.24,26.65 188.32,26.69 188.39,26.68 188.47,26.82 188.45,26.94 188.19,26.80 188.20,26.96 188.04,27.22 187.98,27.18 187.93,27.40 187.89,27.45 187.82,27.44 187.73,27.38 187.72,27.51 187.65,27.63 187.64,27.73 187.57,27.83 187.54,27.92 187.55,28.02 187.49,28.08 187.46,28.05 187.28,28.19 187.18,28.24 187.11,28.19 187.04,28.28 186.98,28.29 186.90,28.25 186.83,28.17 186.83,28.12 186.77,28.12 186.68,28.07 186.65,28.01 186.57,27.94 186.50,27.84 186.49,27.67 186.60,27.64 186.60,27.56 186.65,27.53 186.62,27.44 186.68,27.30 186.75,27.38 186.79,27.32 186.77,27.25 186.80,27.14 186.85,27.14 186.89,27.05 186.94,27.08 186.99,27.05 187.13,26.84 187.13,26.63 187.17,26.49 187.16,26.40 187.12,26.35 187.17,26.31" fill="none" stroke="gray" stroke-width="0.1"/>
    <polygon points="182.85,23.46 182.92,23.49 182.97,23.58 183.38,23.67 183.55,23.73 183.60,23.71 183.77,23.75 183.82,23.82 183.90,23.88 183.91,23.98 183.88,24.06 183.97,24.06 183.94,24.14 184.01,24.20 184.00,24.26 183.92,24.28 183.87,24.42 183.85,24.51 183.90,24.52 183.96,24.45 184.01,24.34 184.09,24.29 184.14,24.14 184.22,24.11 184.22,24.18 184.17,24.25 184.08,24.49 184.06,24.62 184.07,24.71 184.03,24.75 184.01,24.88 184.03,24.98 184.00,25.05 183.97,25.23 183.99,25.37 184.05,25.49 184.05,25.65 183.65,25.68 182.89,25.72 182.86,25.66 182.71,25.60 182.67,25.51 182.65,25.39 182.70,25.32 182.64,25.27 182.63,25.18 182.60,25.12 182.61,25.03 182.53,24.91 182.46,24.89 182.34,24.80 182.32,24.73 182.20,24.68 182.15,24.62 182.07,24.61 181.96,24.51 181.98,24.31 181.97,24.21 182.01,24.13 181.96,24.06 181.92,24.05 181.92,23.97 182.01,23.85 182.12,23.80 182.14,23.77 182.12,23.44 182.20,23.39 182.23,23.41 182.32,23.42 182.58,23.31 182.68,23.25 182.71,23.29 182.66,23.37 182.79,23.45 182.85,23.46" fill="none" stroke="gray" stroke-width="0.1"/>
    <polygon points="175.56,24.04 176.80,24.19 177.53,24.26 177.43,25.37 177.34,26.49 176.64,26.43 175.73,26.32 175.26,26.26 174.44,26.14 174.53,25.58 174.74,24.21 174.79,23.92 175.56,24.04" fill="none" stroke="gray" stroke-width="0.1"/>
    <polygon points="187.05,25.56 187.17,26.31 187.12,26.35 187.16,26.40 187.17,26.49 187.13,26.63 187.13,26.84 186.99,27.05 186.94,27.08 186.89,27.05 186.85,27.14 186.80,27.14 186.77,27.25 186.79,27.32 186.75,27.38 186.68,27.30 186.62,27.44 186.65,27.53 186.60,27.56 186.60,27.64 186.49,27.67 186.42,27.60 186.37,27.59 186.33,27.50 186.28,27.53 186.24,27.59 186.07,27.57 186.01,27.62 185.90,27.55 185.76,27.55 185.75,27.50 185.65,27.39 185.49,27.41 185.40,26.64 185.32,25.97 185.87,25.88 186.04,25.93 186.10,25.97 186.14,25.92 186.24,26.00 186.30,26.02 186.48,25.92 186.60,25.92 186.70,25.79 186.86,25.67 187.05,25.56 187.05,25.56" fill="none" stroke="black" stroke-width="0.6"/>
    <polyline points="185.40,26.65 186.28,27.53" fill="none" stroke="gray" stroke-width="0.12"/>
    <polyline points="185.75,25.90 186.92,27.06" fill="none" stroke="gray" stroke-width="0.12"/>
    <polyline points="186.73,25.77 187.16,26.21" fill="none" stroke="gray" stroke-width="0.12"/>
    <text x="180.45" y="38.26" font-size="2.40" text-anchor="middle" fill="black" font-family="monospace">OHIO</text>
  </g>
  <g inkscape:groupmode="layer" inkscape:label="legend" id="legend">
    <text x="28.00" y="195.34" font-size="2.40" text-anchor="start" fill="black" font-family="monospace">LEGEND</text>
    <line x1="45.00" y1="194.53" x2="51.00" y2="194.53" stroke="black" stroke-width="0.7"/>
    <text x="52.50" y="195.34" font-size="2.20" text-anchor="start" fill="black" font-family="monospace">State outline</text>
    <line x1="74.05" y1="194.53" x2="80.05" y2="194.53" stroke="gray" stroke-width="0.7"/>
    <text x="81.55" y="195.34" font-size="2.20" text-anchor="start" fill="black" font-family="monospace">Counties</text>
    <line x1="96.35" y1="195.53" x2="97.85" y2="193.53" stroke="gray" stroke-width="0.3"/>
    <line x1="98.35" y1="195.53" x2="99.85" y2="193.53" stroke="gray" stroke-width="0.3"/>
    <line x1="100.35" y1="195.53" x2="101.85" y2="193.53" stroke="gray" stroke-width="0.3"/>
    <text x="103.85" y="195.34" font-size="2.20" text-anchor="start" fill="black" font-family="monospace">Ohio (this state)</text>
  </g>
  <g inkscape:groupmode="layer" inkscape:label="history" id="history">
    <polyline points="30.00,265.23 36.00,263.97 42.00,261.90 48.00,260.26 54.00,258.99 60.00,257.83 66.00,255.94 72.00,254.25 78.00,252.53 84.00,250.36 90.00,246.83 96.00,243.68 102.00,242.75 108.00,239.06 114.00,232.81 120.00,229.45 126.00,228.93 132.00,228.76 138.00,226.96 144.00,226.31 150.00,225.37" fill="none" stroke="black" stroke-width="0.6"/>
  </g>
  <g inkscape:groupmode="layer" inkscape:label="forecast" id="forecast">
    <polyline points="150.00,224.04 153.00,223.23 156.00,222.42 159.00,221.61 162.00,220.80 165.00,219.99 168.00,219.18 171.00,218.37 174.00,217.56 177.00,216.75 180.00,215.94" fill="none" stroke="#1f77b4" stroke-width="0.5"/>
    <polyline points="150.00,223.50 153.00,222.49 156.00,221.46 159.00,220.41 162.00,219.33 165.00,218.22 168.00,217.09 171.00,215.93 174.00,214.75 177.00,213.54 180.00,212.30" fill="none" stroke="#ff7f0e" stroke-width="0.5"/>
    <polyline points="150.00,225.37 156.00,224.40 162.00,223.90 168.00,223.50 174.00,223.17 180.00,222.92" fill="none" stroke="#2ca02c" stroke-width="0.5"/>
    <polyline points="150.00,226.46 153.00,226.42 156.00,226.40 159.00,226.38 162.00,226.37 165.00,226.36 168.00,226.36 171.00,226.35 174.00,226.35 177.00,226.35 180.00,226.35" fill="none" stroke="#9467bd" stroke-width="0.5"/>
    <polyline points="150.00,225.37 156.00,225.15 162.00,225.10 168.00,225.09 174.00,225.08 180.00,225.08" fill="none" stroke="#8c564b" stroke-width="0.5"/>
  </g>
  <g inkscape:groupmode="layer" inkscape:label="forecast-key" id="forecast-key">
    <text x="153.00" y="247.10" font-size="2.00" text-anchor="start" fill="black" font-family="monospace">ENSEMBLE (fit: last 75 yrs)</text>
    <line x1="153.00" y1="249.30" x2="158.00" y2="249.30" stroke="#1f77b4" stroke-width="0.6"/>
    <text x="159.50" y="250.20" font-size="2.10" text-anchor="start" fill="#1f77b4" font-family="monospace">Linear: ~14.5M by 2070</text>
    <line x1="153.00" y1="252.30" x2="158.00" y2="252.30" stroke="#ff7f0e" stroke-width="0.6"/>
    <text x="159.50" y="253.20" font-size="2.10" text-anchor="start" fill="#ff7f0e" font-family="monospace">Exponential: ~15.5M by 2070</text>
    <line x1="153.00" y1="255.30" x2="158.00" y2="255.30" stroke="#2ca02c" stroke-width="0.6"/>
    <text x="159.50" y="256.20" font-size="2.10" text-anchor="start" fill="#2ca02c" font-family="monospace">Damped trend: ~12.5M by 2070</text>
    <line x1="153.00" y1="258.30" x2="158.00" y2="258.30" stroke="#9467bd" stroke-width="0.6"/>
    <text x="159.50" y="259.20" font-size="2.10" text-anchor="start" fill="#9467bd" font-family="monospace">Logistic: ~11.5M by 2070</text>
    <line x1="153.00" y1="261.30" x2="158.00" y2="261.30" stroke="#8c564b" stroke-width="0.6"/>
    <text x="159.50" y="262.20" font-size="2.10" text-anchor="start" fill="#8c564b" font-family="monospace">ARIMA: ~11.9M by 2070</text>
  </g>
  <g inkscape:groupmode="layer" inkscape:label="phases" id="phases">
    <line x1="30.50" y1="205.70" x2="37.90" y2="205.70" stroke="black" stroke-width="0.25"/>
    <line x1="30.50" y1="205.70" x2="30.50" y2="206.90" stroke="black" stroke-width="0.25"/>
    <line x1="37.90" y1="205.70" x2="37.90" y2="206.90" stroke="black" stroke-width="0.25"/>
    <text x="34.20" y="203.70" font-size="1.60" text-anchor="middle" fill="black" font-family="monospace">GROWTH</text>
    <line x1="38.90" y1="205.70" x2="45.10" y2="205.70" stroke="black" stroke-width="0.25"/>
    <line x1="38.90" y1="205.70" x2="38.90" y2="206.90" stroke="black" stroke-width="0.25"/>
    <line x1="45.10" y1="205.70" x2="45.10" y2="206.90" stroke="black" stroke-width="0.25"/>
    <text x="42.00" y="203.70" font-size="1.60" text-anchor="middle" fill="black" font-family="monospace">THE TURN</text>
    <line x1="46.10" y1="205.70" x2="149.50" y2="205.70" stroke="black" stroke-width="0.25"/>
    <line x1="46.10" y1="205.70" x2="46.10" y2="206.90" stroke="black" stroke-width="0.25"/>
    <line x1="149.50" y1="205.70" x2="149.50" y2="206.90" stroke="black" stroke-width="0.25"/>
    <text x="97.80" y="203.70" font-size="2.50" text-anchor="middle" fill="black" font-family="monospace">SINCE</text>
    <line x1="150.50" y1="205.70" x2="179.50" y2="205.70" stroke="black" stroke-width="0.25"/>
    <line x1="150.50" y1="205.70" x2="150.50" y2="206.90" stroke="black" stroke-width="0.25"/>
    <line x1="179.50" y1="205.70" x2="179.50" y2="206.90" stroke="black" stroke-width="0.25"/>
    <text x="42.00" y="201.50" font-size="2.20" text-anchor="middle" fill="black" font-family="monospace">1840</text>
  </g>
  <g inkscape:groupmode="layer" inkscape:label="axis" id="axis">
    <line x1="30.00" y1="267.30" x2="180.00" y2="267.30" stroke="black" stroke-width="0.3"/>
    <line x1="30.00" y1="207.90" x2="30.00" y2="267.30" stroke="black" stroke-width="0.3"/>
    <line x1="150.00" y1="207.90" x2="150.00" y2="267.30" stroke="red" stroke-width="0.4" stroke-dasharray="1,1.5"/>
    <text x="148.40" y="237.60" font-size="2.80" text-anchor="middle" fill="red" font-family="monospace" transform="rotate(-90 148.40 237.60)">2020</text>
    <line x1="48.00" y1="267.30" x2="48.00" y2="268.80" stroke="black" stroke-width="0.3"/>
    <text x="48.00" y="272.30" font-size="2.60" text-anchor="middle" fill="black" font-family="monospace">1850</text>
    <line x1="78.00" y1="267.30" x2="78.00" y2="268.80" stroke="black" stroke-width="0.3"/>
    <text x="78.00" y="272.30" font-size="2.60" text-anchor="middle" fill="black" font-family="monospace">1900</text>
    <line x1="108.00" y1="267.30" x2="108.00" y2="268.80" stroke="black" stroke-width="0.3"/>
    <text x="108.00" y="272.30" font-size="2.60" text-anchor="middle" fill="black" font-family="monospace">1950</text>
    <line x1="138.00" y1="267.30" x2="138.00" y2="268.80" stroke="black" stroke-width="0.3"/>
    <text x="138.00" y="272.30" font-size="2.60" text-anchor="middle" fill="black" font-family="monospace">2000</text>
    <line x1="168.00" y1="267.30" x2="168.00" y2="268.80" stroke="black" stroke-width="0.3"/>
    <text x="168.00" y="272.30" font-size="2.60" text-anchor="middle" fill="black" font-family="monospace">2050</text>
    <line x1="28.50" y1="267.30" x2="30.00" y2="267.30" stroke="black" stroke-width="0.3"/>
    <text x="27.50" y="268.20" font-size="2.60" text-anchor="end" fill="black" font-family="monospace">0</text>
    <line x1="28.50" y1="249.53" x2="30.00" y2="249.53" stroke="black" stroke-width="0.3"/>
    <text x="27.50" y="250.43" font-size="2.60" text-anchor="end" fill="black" font-family="monospace">5M</text>
    <line x1="28.50" y1="231.77" x2="30.00" y2="231.77" stroke="black" stroke-width="0.3"/>
    <text x="27.50" y="232.67" font-size="2.60" text-anchor="end" fill="black" font-family="monospace">10M</text>
    <line x1="28.50" y1="214.00" x2="30.00" y2="214.00" stroke="black" stroke-width="0.3"/>
    <text x="27.50" y="214.90" font-size="2.60" text-anchor="end" fill="black" font-family="monospace">15M</text>
  </g>
</svg>
