<?xml version="1.0" encoding="UTF-8"?>
<svg xmlns="http://www.w3.org/2000/svg" xmlns:inkscape="http://www.inkscape.org/namespaces/inkscape" width="210.0mm" height="297.0mm" viewBox="0 0 210.0 297.0">
  <g inkscape:groupmode="layer" inkscape:label="frame" id="frame">
    <rect x="15.00" y="15.00" width="180.00" height="267.00" fill="none" stroke="black" stroke-width="0.5"/>
    <line x1="11.00" y1="15.00" x2="19.00" y2="15.00" stroke="black" stroke-width="0.3"/>
    <line x1="15.00" y1="11.00" x2="15.00" y2="19.00" stroke="black" stroke-width="0.3"/>
    <line x1="191.00" y1="15.00" x2="199.00" y2="15.00" stroke="black" stroke-width="0.3"/>
    <line x1="195.00" y1="11.00" x2="195.00" y2="19.00" stroke="black" stroke-width="0.3"/>
    <line x1="11.00" y1="282.00" x2="19.00" y2="282.00" stroke="black" stroke-width="0.3"/>
    <line x1="15.00" y1="278.00" x2="15.00" y2="286.00" stroke="black" stroke-width="0.3"/>
    <line x1="191.00" y1="282.00" x2="199.00" y2="282.00" stroke="black" stroke-width="0.3"/>
    <line x1="195.00" y1="278.00" x2="195.00" y2="286.00" stroke="black" stroke-width="0.3"/>
  </g>
  <g inkscape:groupmode="layer" inkscape:label="roads" id="roads">
    <polyline points="60.37,187.11 63.66,182.22 69.37,168.09 71.68,157.58 71.73,151.18" fill="none" stroke="gray" stroke-width="0.12"/>
    <polyline points="36.38,155.60 65.75,145.18" fill="none" stroke="gray" stroke-width="0.12"/>
    <polyline points="77.32,149.78 75.29,153.54 71.72,152.84" fill="none" stroke="gray" stroke-width="0.12"/>
    <polyline points="72.32,150.80 72.86,151.79" fill="none" stroke="gray" stroke-width="0.12"/>
    <polyline points="73.68,149.99 74.31,151.06" fill="none" stroke="gray" stroke-width="0.12"/>
    <polyline points="71.73,151.18 76.43,148.37" fill="none" stroke="gray" stroke-width="0.12"/>
    <polyline points="74.98,149.22 75.56,150.24" fill="none" stroke="gray" stroke-width="0.12"/>
    <polyline points="71.73,151.18 71.29,147.34" fill="none" stroke="gray" stroke-width="0.12"/>
    <polyline points="74.61,149.47 73.65,147.91" fill="none" stroke="gray" stroke-width="0.12"/>
    <polyline points="71.68,149.09 75.45,146.82" fill="none" stroke="gray" stroke-width="0.12"/>
    <polyline points="90.93,153.91 90.26,152.89" fill="none" stroke="gray" stroke-width="0.12"/>
    <polyline points="88.73,153.77 90.26,152.89" fill="none" stroke="gray" stroke-width="0.12"/>
    <polyline points="86.58,153.88 85.34,151.68" fill="none" stroke="gray" stroke-width="0.12"/>
    <polyline points="88.38,149.77 80.36,154.72" fill="none" stroke="gray" stroke-width="0.12"/>
    <polyline points="86.21,153.21 91.98,149.69" fill="none" stroke="gray" stroke-width="0.12"/>
    <polyline points="90.26,152.89 86.78,147.11" fill="none" stroke="gray" stroke-width="0.12"/>
    <polyline points="86.78,147.11 86.48,146.60" fill="none" stroke="gray" stroke-width="0.12"/>
    <polyline points="86.48,146.60 84.55,143.42" fill="none" stroke="gray" stroke-width="0.12"/>
    <polyline points="83.18,146.29 87.67,143.57" fill="none" stroke="gray" stroke-width="0.12"/>
    <polyline points="78.91,146.87 86.00,142.55 89.47,139.64" fill="none" stroke="gray" stroke-width="0.12"/>
    <polyline points="80.36,154.72 76.43,148.37" fill="none" stroke="gray" stroke-width="0.12"/>
    <polyline points="76.43,148.37 78.51,147.10" fill="none" stroke="gray" stroke-width="0.12"/>
    <polyline points="78.51,147.10 78.91,146.87" fill="none" stroke="gray" stroke-width="0.12"/>
    <polyline points="76.43,148.37 74.53,145.38" fill="none" stroke="gray" stroke-width="0.12"/>
    <polyline points="83.94,145.85 81.30,141.51" fill="none" stroke="gray" stroke-width="0.12"/>
    <polyline points="80.52,143.71 85.27,140.79" fill="none" stroke="gray" stroke-width="0.12"/>
    <polyline points="81.47,145.28 77.17,138.09" fill="none" stroke="gray" stroke-width="0.12"/>
    <polyline points="75.31,139.62 75.67,139.32" fill="none" stroke="gray" stroke-width="0.12"/>
    <polyline points="78.67,140.63 83.91,137.64" fill="none" stroke="gray" stroke-width="0.12"/>
    <polyline points="75.67,139.32 83.64,132.67" fill="none" stroke="gray" stroke-width="0.12"/>
    <polyline points="71.29,147.34 70.67,145.48" fill="none" stroke="gray" stroke-width="0.12"/>
    <polyline points="71.29,147.34 74.53,145.38" fill="none" stroke="gray" stroke-width="0.12"/>
    <polyline points="74.53,145.38 74.20,144.76" fill="none" stroke="gray" stroke-width="0.12"/>
    <polyline points="70.67,145.48 70.06,143.63" fill="none" stroke="gray" stroke-width="0.12"/>
    <polyline points="65.75,145.18 70.06,143.63" fill="none" stroke="gray" stroke-width="0.12"/>
    <polyline points="70.72,143.36 70.30,142.81" fill="none" stroke="gray" stroke-width="0.12"/>
    <polyline points="64.43,142.80 64.14,143.29" fill="none" stroke="gray" stroke-width="0.12"/>
    <polyline points="69.29,143.90 69.25,142.79 68.36,141.71" fill="none" stroke="gray" stroke-width="0.12"/>
    <polyline points="66.00,145.08 65.34,143.24 65.43,141.14 64.67,139.77 63.51,139.44 59.41,140.39" fill="none" stroke="gray" stroke-width="0.12"/>
    <polyline points="61.58,146.66 58.33,137.32" fill="none" stroke="gray" stroke-width="0.12"/>
    <polyline points="84.55,143.42 83.61,141.87" fill="none" stroke="gray" stroke-width="0.12"/>
    <polyline points="88.13,144.09 80.57,135.23" fill="none" stroke="gray" stroke-width="0.12"/>
    <polyline points="89.47,139.64 86.20,135.70" fill="none" stroke="gray" stroke-width="0.12"/>
    <polyline points="84.64,137.03 86.20,135.70" fill="none" stroke="gray" stroke-width="0.12"/>
    <polyline points="86.20,135.70 89.27,133.09" fill="none" stroke="gray" stroke-width="0.12"/>
    <polyline points="86.20,135.70 83.64,132.67" fill="none" stroke="gray" stroke-width="0.12"/>
    <polyline points="89.26,136.31 85.20,131.37" fill="none" stroke="gray" stroke-width="0.12"/>
    <polyline points="84.94,134.23 88.03,131.62" fill="none" stroke="gray" stroke-width="0.12"/>
    <polyline points="89.27,133.09 86.71,130.10" fill="none" stroke="gray" stroke-width="0.12"/>
    <polyline points="83.64,132.67 88.04,128.97" fill="none" stroke="gray" stroke-width="0.12"/>
    <polyline points="70.06,143.63 75.31,139.62" fill="none" stroke="gray" stroke-width="0.12"/>
    <polyline points="67.29,142.39 64.43,142.80 62.92,139.61" fill="none" stroke="gray" stroke-width="0.12"/>
    <polyline points="73.82,140.88 72.27,139.74 68.83,139.19 67.08,140.00" fill="none" stroke="gray" stroke-width="0.12"/>
    <polyline points="59.81,141.55 58.45,141.88 57.61,140.91 57.18,138.85 58.54,137.94" fill="none" stroke="gray" stroke-width="0.12"/>
    <polyline points="64.15,139.50 64.27,139.14" fill="none" stroke="gray" stroke-width="0.12"/>
    <polyline points="58.87,138.86 64.54,137.45 67.78,140.66 69.87,140.84 71.13,139.54" fill="none" stroke="gray" stroke-width="0.12"/>
    <polyline points="73.06,135.26 72.63,134.30 75.12,132.26" fill="none" stroke="gray" stroke-width="0.12"/>
    <polyline points="75.12,132.26 75.48,131.97" fill="none" stroke="gray" stroke-width="0.12"/>
    <polyline points="80.14,131.64 70.49,120.33" fill="none" stroke="gray" stroke-width="0.12"/>
    <polyline points="67.14,123.00 66.62,123.05" fill="none" stroke="gray" stroke-width="0.12"/>
    <polyline points="81.88,136.81 84.94,134.23" fill="none" stroke="gray" stroke-width="0.12"/>
    <polyline points="84.64,137.03 82.13,133.92" fill="none" stroke="gray" stroke-width="0.12"/>
    <polyline points="82.13,133.92 80.14,131.64" fill="none" stroke="gray" stroke-width="0.12"/>
    <polyline points="79.31,133.71 82.35,131.13" fill="none" stroke="gray" stroke-width="0.12"/>
    <polyline points="75.48,131.97 76.96,130.77" fill="none" stroke="gray" stroke-width="0.12"/>
    <polyline points="78.09,132.19 81.08,129.61" fill="none" stroke="gray" stroke-width="0.12"/>
    <polyline points="85.20,131.37 82.62,128.34" fill="none" stroke="gray" stroke-width="0.12"/>
    <polyline points="77.55,128.55 76.13,129.76" fill="none" stroke="gray" stroke-width="0.12"/>
    <polyline points="80.57,135.23 70.22,122.59" fill="none" stroke="gray" stroke-width="0.12"/>
    <polyline points="76.44,127.27 74.46,128.97" fill="none" stroke="gray" stroke-width="0.12"/>
    <polyline points="82.35,131.13 86.81,127.43 88.34,127.51" fill="none" stroke="gray" stroke-width="0.12"/>
    <polyline points="86.71,130.10 84.11,127.10" fill="none" stroke="gray" stroke-width="0.12"/>
    <polyline points="90.17,128.29 90.49,128.72" fill="none" stroke="gray" stroke-width="0.12"/>
    <polyline points="90.17,128.29 89.53,126.55" fill="none" stroke="gray" stroke-width="0.12"/>
    <polyline points="88.04,128.97 89.13,122.97" fill="none" stroke="gray" stroke-width="0.12"/>
    <polyline points="86.65,125.52 88.63,125.86" fill="none" stroke="gray" stroke-width="0.12"/>
    <polyline points="85.50,125.93 83.51,123.51" fill="none" stroke="gray" stroke-width="0.12"/>
    <polyline points="88.80,124.75 91.30,124.34" fill="none" stroke="gray" stroke-width="0.12"/>
    <polyline points="82.20,124.54 84.50,122.66 87.12,122.09" fill="none" stroke="gray" stroke-width="0.12"/>
    <polyline points="86.65,125.52 87.13,122.26 86.49,118.89" fill="none" stroke="gray" stroke-width="0.12"/>
    <polyline points="81.08,129.61 86.05,125.47 86.65,125.52" fill="none" stroke="gray" stroke-width="0.12"/>
    <polyline points="77.98,125.92 76.44,127.27" fill="none" stroke="gray" stroke-width="0.12"/>
    <polyline points="82.20,124.54 84.11,127.10" fill="none" stroke="gray" stroke-width="0.12"/>
    <polyline points="83.51,123.51 82.75,119.60" fill="none" stroke="gray" stroke-width="0.12"/>
    <polyline points="75.71,123.22 80.47,120.49 86.49,118.89" fill="none" stroke="gray" stroke-width="0.12"/>
    <polyline points="82.75,119.60 82.25,117.87" fill="none" stroke="gray" stroke-width="0.12"/>
    <polyline points="81.24,120.18 79.90,116.66" fill="none" stroke="gray" stroke-width="0.12"/>
    <polyline points="82.25,117.87 80.59,118.48" fill="none" stroke="gray" stroke-width="0.12"/>
    <polyline points="84.06,117.41 83.27,115.20" fill="none" stroke="gray" stroke-width="0.12"/>
    <polyline points="86.49,118.89 84.90,114.71 81.44,113.35 78.99,114.33" fill="none" stroke="gray" stroke-width="0.12"/>
    <polyline points="89.13,122.97 91.79,120.23" fill="none" stroke="gray" stroke-width="0.12"/>
    <polyline points="85.29,122.51 84.06,117.41" fill="none" stroke="gray" stroke-width="0.12"/>
    <polyline points="86.49,118.89 88.29,118.53" fill="none" stroke="gray" stroke-width="0.12"/>
    <polyline points="89.07,116.47 91.76,117.84" fill="none" stroke="gray" stroke-width="0.12"/>
    <polyline points="87.95,116.78 89.07,116.47" fill="none" stroke="gray" stroke-width="0.12"/>
    <polyline points="89.07,116.47 89.40,115.00" fill="none" stroke="gray" stroke-width="0.12"/>
    <polyline points="87.41,114.01 87.28,114.03" fill="none" stroke="gray" stroke-width="0.12"/>
    <polyline points="86.39,113.78 87.28,114.03" fill="none" stroke="gray" stroke-width="0.12"/>
    <polyline points="87.28,114.03 86.39,113.78" fill="none" stroke="gray" stroke-width="0.12"/>
    <polyline points="85.70,113.50 86.39,113.78" fill="none" stroke="gray" stroke-width="0.12"/>
    <polyline points="173.62,132.62 164.98,110.42 162.29,101.25" fill="none" stroke="gray" stroke-width="0.12"/>
    <polyline points="173.62,134.13 147.82,134.16 112.42,136.28" fill="none" stroke="gray" stroke-width="0.12"/>
    <polyline points="111.17,127.45 108.88,121.30" fill="none" stroke="gray" stroke-width="0.12"/>
    <polyline points="109.45,125.16 108.72,123.27" fill="none" stroke="gray" stroke-width="0.12"/>
    <polyline points="120.53,121.06 121.99,120.46" fill="none" stroke="gray" stroke-width="0.12"/>
    <polyline points="119.15,117.46 120.53,121.06" fill="none" stroke="gray" stroke-width="0.12"/>
    <polyline points="121.99,120.46 120.68,116.89" fill="none" stroke="gray" stroke-width="0.12"/>
    <polyline points="105.99,122.37 131.16,112.95" fill="none" stroke="gray" stroke-width="0.12"/>
    <polyline points="118.44,115.64 112.25,117.52" fill="none" stroke="gray" stroke-width="0.12"/>
    <polyline points="117.57,118.07 116.07,113.61 116.36,112.31" fill="none" stroke="gray" stroke-width="0.12"/>
    <polyline points="89.76,157.87 91.37,155.44 90.93,153.91" fill="none" stroke="gray" stroke-width="0.12"/>
    <polyline points="95.57,160.71 89.28,157.55 88.73,153.77 86.85,150.74" fill="none" stroke="gray" stroke-width="0.12"/>
    <polyline points="90.26,152.89 92.54,151.49 93.66,149.25" fill="none" stroke="gray" stroke-width="0.12"/>
    <polyline points="91.83,151.92 89.47,148.11 89.91,147.66" fill="none" stroke="gray" stroke-width="0.12"/>
    <polyline points="93.66,149.25 93.93,148.65" fill="none" stroke="gray" stroke-width="0.12"/>
    <polyline points="90.12,149.20 91.07,148.46" fill="none" stroke="gray" stroke-width="0.12"/>
    <polyline points="93.93,148.65 95.76,144.98" fill="none" stroke="gray" stroke-width="0.12"/>
    <polyline points="100.45,147.31 95.33,144.69 89.47,139.64" fill="none" stroke="gray" stroke-width="0.12"/>
    <polyline points="97.01,147.37 90.13,143.25 84.64,137.03" fill="none" stroke="gray" stroke-width="0.12"/>
    <polyline points="93.18,140.70 96.69,143.27" fill="none" stroke="gray" stroke-width="0.12"/>
    <polyline points="100.45,147.31 103.46,141.05" fill="none" stroke="gray" stroke-width="0.12"/>
    <polyline points="98.92,146.54 101.70,140.85" fill="none" stroke="gray" stroke-width="0.12"/>
    <polyline points="101.89,144.28 97.30,142.03" fill="none" stroke="gray" stroke-width="0.12"/>
    <polyline points="97.43,145.80 100.20,140.10" fill="none" stroke="gray" stroke-width="0.12"/>
    <polyline points="95.76,144.98 99.98,136.43" fill="none" stroke="gray" stroke-width="0.12"/>
    <polyline points="103.21,141.55 98.62,139.31" fill="none" stroke="gray" stroke-width="0.12"/>
    <polyline points="98.62,139.31 97.25,138.01" fill="none" stroke="gray" stroke-width="0.12"/>
    <polyline points="102.35,139.81 102.59,136.55" fill="none" stroke="gray" stroke-width="0.12"/>
    <polyline points="99.28,137.94 100.63,138.40" fill="none" stroke="gray" stroke-width="0.12"/>
    <polyline points="112.42,136.28 101.84,136.53" fill="none" stroke="gray" stroke-width="0.12"/>
    <polyline points="93.46,140.90 94.74,139.52" fill="none" stroke="gray" stroke-width="0.12"/>
    <polyline points="90.64,141.04 92.91,139.10" fill="none" stroke="gray" stroke-width="0.12"/>
    <polyline points="97.52,141.60 92.86,137.36" fill="none" stroke="gray" stroke-width="0.12"/>
    <polyline points="92.86,137.36 89.47,139.64" fill="none" stroke="gray" stroke-width="0.12"/>
    <polyline points="92.86,137.36 92.39,136.82" fill="none" stroke="gray" stroke-width="0.12"/>
    <polyline points="101.84,136.53 94.99,136.35 92.86,137.36" fill="none" stroke="gray" stroke-width="0.12"/>
    <polyline points="92.39,136.82 89.27,133.09" fill="none" stroke="gray" stroke-width="0.12"/>
    <polyline points="91.49,135.74 95.58,132.33 98.86,131.10" fill="none" stroke="gray" stroke-width="0.12"/>
    <polyline points="88.84,135.73 94.69,130.67" fill="none" stroke="gray" stroke-width="0.12"/>
    <polyline points="93.37,134.19 91.09,131.55" fill="none" stroke="gray" stroke-width="0.12"/>
    <polyline points="89.27,133.09 91.62,131.10 94.69,130.67 97.91,129.42" fill="none" stroke="gray" stroke-width="0.12"/>
    <polyline points="98.12,133.73 94.14,126.80" fill="none" stroke="gray" stroke-width="0.12"/>
    <polyline points="90.49,128.72 91.78,131.05" fill="none" stroke="gray" stroke-width="0.12"/>
    <polyline points="93.03,130.88 92.07,128.85" fill="none" stroke="gray" stroke-width="0.12"/>
    <polyline points="91.50,127.79 92.07,128.85" fill="none" stroke="gray" stroke-width="0.12"/>
    <polyline points="92.41,129.58 102.60,125.68" fill="none" stroke="gray" stroke-width="0.12"/>
    <polyline points="91.98,127.61 91.28,125.94" fill="none" stroke="gray" stroke-width="0.12"/>
    <polyline points="93.50,127.03 93.19,126.03" fill="none" stroke="gray" stroke-width="0.12"/>
    <polyline points="88.54,126.38 89.76,126.51 93.74,125.00" fill="none" stroke="gray" stroke-width="0.12"/>
    <polyline points="88.04,128.97 105.99,122.37" fill="none" stroke="gray" stroke-width="0.12"/>
    <polyline points="101.84,136.53 96.03,126.09" fill="none" stroke="gray" stroke-width="0.12"/>
    <polyline points="105.38,128.81 104.74,126.90" fill="none" stroke="gray" stroke-width="0.12"/>
    <polyline points="99.87,129.70 98.21,125.27" fill="none" stroke="gray" stroke-width="0.12"/>
    <polyline points="97.91,129.42 110.23,124.86" fill="none" stroke="gray" stroke-width="0.12"/>
    <polyline points="104.07,127.15 103.38,125.33" fill="none" stroke="gray" stroke-width="0.12"/>
    <polyline points="106.47,124.11 109.54,122.98" fill="none" stroke="gray" stroke-width="0.12"/>
    <polyline points="99.35,120.17 100.30,122.53 100.69,122.36" fill="none" stroke="gray" stroke-width="0.12"/>
    <polyline points="100.69,122.36 105.77,120.21" fill="none" stroke="gray" stroke-width="0.12"/>
    <polyline points="106.70,122.11 106.02,120.42 103.84,118.36" fill="none" stroke="gray" stroke-width="0.12"/>
    <polyline points="104.49,118.99 99.71,121.04" fill="none" stroke="gray" stroke-width="0.12"/>
    <polyline points="97.41,125.57 96.86,124.34" fill="none" stroke="gray" stroke-width="0.12"/>
    <polyline points="93.74,125.00 93.51,124.29" fill="none" stroke="gray" stroke-width="0.12"/>
    <polyline points="90.73,124.54 90.46,123.82" fill="none" stroke="gray" stroke-width="0.12"/>
    <polyline points="94.62,123.53 95.36,122.92 96.33,123.05" fill="none" stroke="gray" stroke-width="0.12"/>
    <polyline points="96.03,126.09 94.38,123.13 91.79,120.23" fill="none" stroke="gray" stroke-width="0.12"/>
    <polyline points="91.79,120.23 97.26,114.68" fill="none" stroke="gray" stroke-width="0.12"/>
    <polyline points="95.20,110.13 91.85,113.29 92.46,116.13 94.40,114.28 93.21,112.31" fill="none" stroke="gray" stroke-width="0.12"/>
    <polyline points="96.40,111.24 94.56,112.65" fill="none" stroke="gray" stroke-width="0.12"/>
    <polyline points="93.93,108.80 91.89,110.99 90.88,110.64" fill="none" stroke="gray" stroke-width="0.12"/>
    <polyline points="98.21,111.28 95.96,108.34 95.87,107.17 96.17,108.44" fill="none" stroke="gray" stroke-width="0.12"/>
    <polyline points="114.00,116.79 113.11,115.57 111.60,115.30 111.07,114.63 112.69,111.16 117.71,112.88 118.95,113.88" fill="none" stroke="gray" stroke-width="0.12"/>
    <polyline points="116.15,113.85 114.96,114.01 111.70,112.70" fill="none" stroke="gray" stroke-width="0.12"/>
    <polyline points="131.16,112.95 146.35,107.24" fill="none" stroke="gray" stroke-width="0.12"/>
    <polyline points="112.43,108.18 112.01,109.09" fill="none" stroke="gray" stroke-width="0.12"/>
    <polyline points="111.04,107.58 113.61,108.54 113.66,108.73 113.19,108.51" fill="none" stroke="gray" stroke-width="0.12"/>
    <polyline points="120.24,107.34 122.47,108.49" fill="none" stroke="gray" stroke-width="0.12"/>
    <polyline points="118.73,105.14 116.14,110.17" fill="none" stroke="gray" stroke-width="0.12"/>
    <polyline points="116.76,104.19 119.57,105.68 117.19,110.45 114.31,109.34 115.13,107.40" fill="none" stroke="gray" stroke-width="0.12"/>
    <polyline points="121.20,105.47 120.77,106.31 120.24,107.34 119.80,108.18 119.75,108.43 121.90,109.04 122.57,107.63 120.77,106.31" fill="none" stroke="gray" stroke-width="0.12"/>
    <polyline points="117.74,104.67 115.13,109.75" fill="none" stroke="gray" stroke-width="0.12"/>
    <polyline points="98.51,113.42 102.50,117.22" fill="none" stroke="gray" stroke-width="0.12"/>
    <polyline points="97.26,114.68 100.72,111.25" fill="none" stroke="gray" stroke-width="0.12"/>
    <polyline points="100.72,111.25 101.33,110.66" fill="none" stroke="gray" stroke-width="0.12"/>
    <polyline points="101.33,110.66 104.26,107.89" fill="none" stroke="gray" stroke-width="0.12"/>
    <polyline points="97.57,107.88 100.98,104.84" fill="none" stroke="gray" stroke-width="0.12"/>
    <polyline points="99.07,103.29 98.65,104.39 99.31,104.96 100.39,103.82 99.07,103.29" fill="none" stroke="gray" stroke-width="0.12"/>
    <polyline points="98.22,102.99 99.07,103.29" fill="none" stroke="gray" stroke-width="0.12"/>
    <polyline points="99.07,103.29 98.27,102.89" fill="none" stroke="gray" stroke-width="0.12"/>
    <polyline points="104.68,100.21 104.68,101.52" fill="none" stroke="gray" stroke-width="0.12"/>
    <polyline points="104.81,99.14 106.10,99.22 106.21,99.80 104.04,100.52 102.80,100.11 103.38,98.83 104.81,99.14" fill="none" stroke="gray" stroke-width="0.12"/>
    <polyline points="129.98,113.39 128.10,110.35 122.25,106.18 111.18,100.49" fill="none" stroke="gray" stroke-width="0.12"/>
    <polyline points="116.76,104.19 115.13,107.40" fill="none" stroke="gray" stroke-width="0.12"/>
    <polyline points="107.49,104.72 108.33,105.54 108.40,107.05 110.05,108.21 111.04,107.58 109.84,104.27 108.80,103.29" fill="none" stroke="gray" stroke-width="0.12"/>
    <polyline points="114.13,106.97 115.79,103.72" fill="none" stroke="gray" stroke-width="0.12"/>
    <polyline points="115.13,107.40 112.38,106.21 112.36,105.66 113.89,102.89 116.76,104.19" fill="none" stroke="gray" stroke-width="0.12"/>
    <polyline points="114.82,103.24 113.13,106.54" fill="none" stroke="gray" stroke-width="0.12"/>
    <polyline points="109.37,103.73 108.02,105.19" fill="none" stroke="gray" stroke-width="0.12"/>
    <polyline points="146.35,107.24 162.29,101.25" fill="none" stroke="gray" stroke-width="0.12"/>
    <polyline points="116.76,104.19 117.24,103.45" fill="none" stroke="gray" stroke-width="0.12"/>
    <polyline points="117.06,103.37 116.76,104.19" fill="none" stroke="gray" stroke-width="0.12"/>
    <polyline points="74.61,121.98 67.14,123.00" fill="none" stroke="gray" stroke-width="0.12"/>
    <polyline points="70.48,117.54 68.87,119.05" fill="none" stroke="gray" stroke-width="0.12"/>
    <polyline points="83.64,132.67 74.26,121.57 63.49,110.07 56.82,101.27" fill="none" stroke="gray" stroke-width="0.12"/>
    <polyline points="66.62,123.05 36.38,117.98" fill="none" stroke="gray" stroke-width="0.12"/>
    <polyline points="73.63,110.66 75.00,112.35" fill="none" stroke="gray" stroke-width="0.12"/>
    <polyline points="65.04,111.77 65.71,111.16" fill="none" stroke="gray" stroke-width="0.12"/>
    <polyline points="66.73,100.81 74.73,109.79" fill="none" stroke="gray" stroke-width="0.12"/>
    <polyline points="75.88,106.35 74.57,104.44 75.46,102.78" fill="none" stroke="gray" stroke-width="0.12"/>
    <polyline points="59.64,103.77 58.88,104.23" fill="none" stroke="gray" stroke-width="0.12"/>
    <polyline points="59.38,101.33 63.10,106.43" fill="none" stroke="gray" stroke-width="0.12"/>
    <polyline points="79.90,116.66 83.27,115.20" fill="none" stroke="gray" stroke-width="0.12"/>
    <polyline points="79.90,116.66 78.99,114.33" fill="none" stroke="gray" stroke-width="0.12"/>
    <polyline points="78.99,114.33 78.17,115.44" fill="none" stroke="gray" stroke-width="0.12"/>
    <polyline points="83.27,115.20 83.54,114.31" fill="none" stroke="gray" stroke-width="0.12"/>
    <polyline points="82.25,117.87 79.72,111.40" fill="none" stroke="gray" stroke-width="0.12"/>
    <polyline points="75.99,108.81 78.43,114.74" fill="none" stroke="gray" stroke-width="0.12"/>
    <polyline points="85.70,113.50 80.73,111.29 80.61,110.20 79.00,107.92 77.48,108.32 77.11,109.19 77.76,110.25 80.73,111.29" fill="none" stroke="gray" stroke-width="0.12"/>
    <polyline points="81.28,110.05 80.83,110.90" fill="none" stroke="gray" stroke-width="0.12"/>
    <polyline points="80.61,110.20 83.82,110.37" fill="none" stroke="gray" stroke-width="0.12"/>
    <polyline points="68.10,115.01 76.78,108.22 85.40,103.90" fill="none" stroke="gray" stroke-width="0.12"/>
    <polyline points="89.13,122.97 85.30,103.66" fill="none" stroke="gray" stroke-width="0.12"/>
    <polyline points="85.22,109.91 86.03,112.40 85.58,112.54 85.70,113.50" fill="none" stroke="gray" stroke-width="0.12"/>
    <polyline points="85.21,110.98 83.74,110.57 84.08,111.71 85.58,112.54" fill="none" stroke="gray" stroke-width="0.12"/>
    <polyline points="86.16,107.44 87.22,107.21" fill="none" stroke="gray" stroke-width="0.12"/>
    <polyline points="87.22,107.21 89.44,107.43 92.36,106.87" fill="none" stroke="gray" stroke-width="0.12"/>
    <polyline points="91.61,100.04 82.91,99.31" fill="none" stroke="gray" stroke-width="0.12"/>
    <polyline points="97.81,95.72 89.12,87.99 86.84,87.16 82.29,88.55 77.34,91.15 76.25,92.98 76.24,96.32" fill="none" stroke="gray" stroke-width="0.12"/>
    <polyline points="77.76,107.72 77.86,108.04" fill="none" stroke="gray" stroke-width="0.12"/>
    <polyline points="79.03,107.10 79.13,108.01" fill="none" stroke="gray" stroke-width="0.12"/>
    <polyline points="75.41,101.32 75.37,102.63 76.85,105.31 75.39,107.01 75.99,108.81" fill="none" stroke="gray" stroke-width="0.12"/>
    <polyline points="85.30,103.66 79.68,92.75 77.48,87.06" fill="none" stroke="gray" stroke-width="0.12"/>
    <polyline points="77.48,87.06 77.14,85.31 77.69,79.53" fill="none" stroke="gray" stroke-width="0.12"/>
    <polyline points="77.69,79.53 78.13,75.10" fill="none" stroke="gray" stroke-width="0.12"/>
    <polyline points="78.13,75.10 79.41,62.37" fill="none" stroke="gray" stroke-width="0.12"/>
    <polyline points="60.56,103.13 59.64,103.77" fill="none" stroke="gray" stroke-width="0.12"/>
    <polyline points="67.27,101.50 70.96,98.82 71.69,98.86 72.16,100.16 68.38,102.95" fill="none" stroke="gray" stroke-width="0.12"/>
    <polyline points="66.73,100.81 66.26,100.09" fill="none" stroke="gray" stroke-width="0.12"/>
    <polyline points="63.93,99.63 66.30,97.95" fill="none" stroke="gray" stroke-width="0.12"/>
    <polyline points="63.36,102.05 66.64,99.83 66.93,99.02 64.50,95.62 62.97,96.19" fill="none" stroke="gray" stroke-width="0.12"/>
    <polyline points="63.99,97.52 65.28,96.63" fill="none" stroke="gray" stroke-width="0.12"/>
    <polyline points="56.82,101.27 36.38,70.33" fill="none" stroke="gray" stroke-width="0.12"/>
    <polyline points="90.88,110.64 90.53,109.03 90.92,108.15 93.67,107.67" fill="none" stroke="gray" stroke-width="0.12"/>
    <polyline points="99.65,110.11 98.21,111.28 96.40,111.24 93.79,108.66 93.79,107.47 95.57,105.76" fill="none" stroke="gray" stroke-width="0.12"/>
    <polyline points="94.90,105.05 93.48,105.77" fill="none" stroke="gray" stroke-width="0.12"/>
    <polyline points="92.89,99.54 94.04,104.08 100.72,111.25" fill="none" stroke="gray" stroke-width="0.12"/>
    <polyline points="95.57,105.76 98.30,102.83" fill="none" stroke="gray" stroke-width="0.12"/>
    <polyline points="96.86,104.53 95.48,103.34" fill="none" stroke="gray" stroke-width="0.12"/>
    <polyline points="98.30,102.83 93.20,100.83" fill="none" stroke="gray" stroke-width="0.12"/>
    <polyline points="110.09,101.79 111.23,102.70" fill="none" stroke="gray" stroke-width="0.12"/>
    <polyline points="162.29,101.25 160.92,96.86" fill="none" stroke="gray" stroke-width="0.12"/>
    <polyline points="104.26,107.89 111.18,100.49 122.48,85.59" fill="none" stroke="gray" stroke-width="0.12"/>
    <polyline points="113.28,95.76 114.20,96.66" fill="none" stroke="gray" stroke-width="0.12"/>
    <polyline points="114.31,96.53 113.28,95.76" fill="none" stroke="gray" stroke-width="0.12"/>
    <polyline points="112.57,95.12 111.28,95.29" fill="none" stroke="gray" stroke-width="0.12"/>
    <polyline points="110.46,93.25 111.38,91.20" fill="none" stroke="gray" stroke-width="0.12"/>
    <polyline points="110.21,89.79 113.94,93.18 116.42,93.85" fill="none" stroke="gray" stroke-width="0.12"/>
    <polyline points="114.22,84.06 110.21,89.79" fill="none" stroke="gray" stroke-width="0.12"/>
    <polyline points="108.30,88.78 111.65,84.75 113.22,85.29" fill="none" stroke="gray" stroke-width="0.12"/>
    <polyline points="104.81,99.14 105.08,97.84" fill="none" stroke="gray" stroke-width="0.12"/>
    <polyline points="104.88,97.84 104.62,99.04" fill="none" stroke="gray" stroke-width="0.12"/>
    <polyline points="111.18,100.49 108.01,98.26 101.49,97.86 97.81,95.72" fill="none" stroke="gray" stroke-width="0.12"/>
    <polyline points="106.41,97.95 107.32,96.30" fill="none" stroke="gray" stroke-width="0.12"/>
    <polyline points="98.99,96.96 102.76,92.45 107.93,92.27" fill="none" stroke="gray" stroke-width="0.12"/>
    <polyline points="113.28,95.76 111.99,93.76 111.12,93.32 108.40,93.97 103.79,93.99" fill="none" stroke="gray" stroke-width="0.12"/>
    <polyline points="105.47,93.98 105.45,94.97" fill="none" stroke="gray" stroke-width="0.12"/>
    <polyline points="101.49,93.90 102.11,94.39" fill="none" stroke="gray" stroke-width="0.12"/>
    <polyline points="105.85,89.53 104.68,89.91 103.88,91.02 103.78,96.13 101.13,96.06 100.26,95.41" fill="none" stroke="gray" stroke-width="0.12"/>
    <polyline points="109.05,91.62 107.93,92.27" fill="none" stroke="gray" stroke-width="0.12"/>
    <polyline points="105.86,92.27 105.86,91.30" fill="none" stroke="gray" stroke-width="0.12"/>
    <polyline points="107.94,93.97 107.70,90.66 105.85,89.53" fill="none" stroke="gray" stroke-width="0.12"/>
    <polyline points="105.86,86.83 110.21,89.79" fill="none" stroke="gray" stroke-width="0.12"/>
    <polyline points="108.35,82.76 104.34,83.23" fill="none" stroke="gray" stroke-width="0.12"/>
    <polyline points="105.05,83.86 104.70,80.91 106.26,81.16 106.66,82.95" fill="none" stroke="gray" stroke-width="0.12"/>
    <polyline points="108.30,81.27 108.35,82.76" fill="none" stroke="gray" stroke-width="0.12"/>
    <polyline points="104.70,80.91 103.04,79.63" fill="none" stroke="gray" stroke-width="0.12"/>
    <polyline points="108.35,82.76 111.32,82.53 112.98,83.10 120.36,88.88" fill="none" stroke="gray" stroke-width="0.12"/>
    <polyline points="110.10,81.96 110.09,83.75 106.99,87.72" fill="none" stroke="gray" stroke-width="0.12"/>
    <polyline points="122.48,85.59 125.35,77.40" fill="none" stroke="gray" stroke-width="0.12"/>
    <polyline points="125.35,77.40 132.16,68.03 138.63,62.37" fill="none" stroke="gray" stroke-width="0.12"/>
    <polyline points="125.50,77.11 117.44,68.79 117.22,62.37" fill="none" stroke="gray" stroke-width="0.12"/>
  </g>
  <g inkscape:groupmode="layer" inkscape:label="water" id="water">
    <polyline points="36.38,88.52 38.10,95.43 41.46,96.71 44.25,97.06 50.15,95.71 50.72,97.48 50.25,97.77 49.14,102.68 50.22,104.85 50.24,106.15 51.17,106.60 55.15,111.82 55.50,113.02 57.31,113.40 60.52,111.30 64.90,115.66 67.44,124.03 73.36,130.74 78.02,133.95 78.19,134.95 75.40,138.88 75.50,139.85 80.43,149.81 81.24,150.13 83.62,149.55 87.68,146.10 89.93,145.95 95.74,150.28 96.61,150.30 96.90,149.47 97.71,149.63 97.91,150.31 99.66,149.71 101.03,150.23 101.12,151.07 102.06,151.56 101.19,153.48 101.14,155.21 102.78,156.69 106.30,156.41 107.12,156.89 106.63,157.88 107.74,159.99 108.93,160.43 108.29,161.74 109.03,162.67 112.19,163.14 112.36,162.09 114.37,161.87 115.58,163.20 116.87,162.70 118.09,164.27 118.10,167.42 118.64,168.39 117.21,169.20 118.14,170.31 118.49,172.63 119.32,173.02 119.70,174.06 122.00,174.39 136.48,181.70 137.09,184.06 136.04,184.82 136.08,187.11" fill="none" stroke="blue" stroke-width="0.3"/>
    <polyline points="135.44,117.69 136.80,117.45 136.82,117.25 135.44,117.69" fill="none" stroke="blue" stroke-width="0.3"/>
    <polyline points="137.14,117.04 138.62,116.80 138.53,116.54 137.14,117.04" fill="none" stroke="blue" stroke-width="0.3"/>
    <polyline points="145.98,113.73 141.66,115.11 139.85,116.21 145.98,113.73" fill="none" stroke="blue" stroke-width="0.3"/>
    <polyline points="141.75,111.26 142.50,113.97 142.90,114.26 141.75,111.26" fill="none" stroke="blue" stroke-width="0.3"/>
    <polyline points="132.99,112.60 133.37,113.44 135.19,112.38 134.67,111.89 132.99,112.60" fill="none" stroke="blue" stroke-width="0.3"/>
    <polyline points="136.68,111.49 137.19,111.96 139.57,111.26 138.16,110.85 136.68,111.49" fill="none" stroke="blue" stroke-width="0.3"/>
    <polyline points="127.79,110.44 127.19,110.53 127.18,110.64 127.79,110.44" fill="none" stroke="blue" stroke-width="0.3"/>
    <polyline points="134.57,109.99 134.72,110.59 135.15,110.52 135.15,109.74 134.57,109.99" fill="none" stroke="blue" stroke-width="0.3"/>
    <polyline points="140.99,110.57 143.48,109.78 143.65,109.55 142.70,109.01 141.07,109.65 140.99,110.57" fill="none" stroke="blue" stroke-width="0.3"/>
    <polyline points="90.19,166.19 90.20,165.38 89.43,165.61 89.52,166.16 90.19,166.19" fill="none" stroke="blue" stroke-width="0.3"/>
    <polyline points="77.49,134.61 76.33,135.95 76.53,136.25 77.74,134.96 77.49,134.61" fill="none" stroke="blue" stroke-width="0.3"/>
    <polyline points="77.07,134.15 75.98,135.36 76.20,135.84 77.43,134.55 77.07,134.15" fill="none" stroke="blue" stroke-width="0.3"/>
    <polyline points="102.77,116.53 102.14,116.66 102.32,116.79 102.77,116.53" fill="none" stroke="blue" stroke-width="0.3"/>
    <polyline points="102.83,117.15 104.13,116.70 103.66,115.93 103.23,115.87 103.36,116.77 102.83,117.15" fill="none" stroke="blue" stroke-width="0.3"/>
    <polyline points="109.02,109.29 106.36,112.24 109.92,108.76 109.02,109.29" fill="none" stroke="blue" stroke-width="0.3"/>
    <polyline points="73.35,104.38 73.43,105.68 74.85,107.21 75.05,106.78 73.35,104.38" fill="none" stroke="blue" stroke-width="0.3"/>
    <polyline points="72.26,104.13 72.22,103.10 72.80,103.44 72.57,105.30 73.79,107.57 70.92,104.19 72.26,104.13" fill="none" stroke="blue" stroke-width="0.3"/>
    <polyline points="73.96,102.69 74.80,102.16 74.16,101.23 73.93,101.64 73.96,102.69" fill="none" stroke="blue" stroke-width="0.3"/>
    <polyline points="101.28,100.75 100.59,101.36 101.32,101.81 101.28,100.75" fill="none" stroke="blue" stroke-width="0.3"/>
    <polyline points="145.30,108.35 146.24,108.02 146.25,107.63 145.48,107.82 145.30,108.35" fill="none" stroke="blue" stroke-width="0.3"/>
    <polyline points="155.64,104.31 156.28,104.44 158.80,103.34 155.64,104.31" fill="none" stroke="blue" stroke-width="0.3"/>
    <polyline points="154.13,101.34 154.40,100.87 154.56,100.20 153.89,100.63 154.13,101.34" fill="none" stroke="blue" stroke-width="0.3"/>
    <polyline points="116.48,95.30 116.15,95.60 116.57,95.41 116.48,95.30" fill="none" stroke="blue" stroke-width="0.3"/>
    <polyline points="115.23,93.51 114.71,94.04 114.67,94.51 115.71,93.92 115.23,93.51" fill="none" stroke="blue" stroke-width="0.3"/>
    <polyline points="113.76,83.25 115.40,84.51 115.90,84.00 114.08,83.02 113.76,83.25" fill="none" stroke="blue" stroke-width="0.3"/>
    <polyline points="74.46,97.70 74.84,98.39 75.64,98.18 75.29,97.52 74.46,97.70" fill="none" stroke="blue" stroke-width="0.3"/>
    <polyline points="97.35,97.05 97.18,97.15 97.35,97.00 97.35,97.05" fill="none" stroke="blue" stroke-width="0.3"/>
    <polyline points="114.91,92.63 114.34,92.95 114.93,92.88 114.91,92.63" fill="none" stroke="blue" stroke-width="0.3"/>
    <polyline points="85.33,88.72 87.25,90.78 88.43,89.07 86.35,88.36 85.33,88.72" fill="none" stroke="blue" stroke-width="0.3"/>
    <polyline points="114.25,85.75 115.06,85.23 114.43,84.65 114.06,84.85 114.25,85.75" fill="none" stroke="blue" stroke-width="0.3"/>
    <polyline points="109.79,83.00 108.41,83.04 109.81,82.94 109.79,83.00" fill="none" stroke="blue" stroke-width="0.3"/>
  </g>
  <g inkscape:groupmode="layer" inkscape:label="rail" id="rail">
    <polyline points="74.77,143.79 76.71,143.00" fill="none" stroke="red" stroke-width="0.3"/>
    <polyline points="76.71,143.00 77.09,142.84" fill="none" stroke="red" stroke-width="0.3"/>
    <polyline points="77.09,142.84 96.27,134.92" fill="none" stroke="red" stroke-width="0.3"/>
    <polyline points="84.14,137.44 76.48,137.59" fill="none" stroke="red" stroke-width="0.3"/>
    <polyline points="76.48,137.59 76.03,137.53" fill="none" stroke="red" stroke-width="0.3"/>
    <polyline points="90.75,136.62 84.14,137.44" fill="none" stroke="red" stroke-width="0.3"/>
    <polyline points="94.63,135.52 90.75,136.62" fill="none" stroke="red" stroke-width="0.3"/>
    <polyline points="96.27,134.92 94.63,135.52" fill="none" stroke="red" stroke-width="0.3"/>
    <polyline points="76.03,137.53 36.38,131.95" fill="none" stroke="red" stroke-width="0.3"/>
    <polyline points="102.44,132.27 101.60,132.53" fill="none" stroke="red" stroke-width="0.3"/>
    <polyline points="104.34,131.38 100.30,132.92" fill="none" stroke="red" stroke-width="0.3"/>
    <polyline points="110.05,128.88 95.63,135.01" fill="none" stroke="red" stroke-width="0.3"/>
    <polyline points="159.04,108.67 94.63,135.52" fill="none" stroke="red" stroke-width="0.3"/>
    <polyline points="159.04,108.67 96.27,134.92" fill="none" stroke="red" stroke-width="0.3"/>
    <polyline points="129.53,120.97 124.56,121.68" fill="none" stroke="red" stroke-width="0.3"/>
    <polyline points="135.07,118.67 133.46,118.92 132.29,118.42 130.76,115.24" fill="none" stroke="red" stroke-width="0.3"/>
    <polyline points="173.62,102.63 159.04,108.67" fill="none" stroke="red" stroke-width="0.3"/>
  </g>
  <g inkscape:groupmode="layer" inkscape:label="footprint" id="footprint">
    <polyline points="36.38,156.23 57.02,149.23 63.00,143.15 72.24,158.39 80.73,163.41 85.93,159.19 85.28,167.08 93.87,170.95 88.65,181.96 100.88,187.11 108.05,171.96 95.66,166.95 104.41,159.44 95.03,151.39 112.42,136.28 173.62,132.60 146.78,131.63 137.57,117.92 156.23,129.55 162.06,124.56 158.89,116.99 167.60,117.20 160.70,96.21 156.41,96.24 157.54,90.79 125.50,77.11 117.33,68.17 108.33,68.09 105.25,71.86 96.79,62.37 91.14,69.91 91.11,64.42 79.19,64.23 78.24,74.00 71.21,75.03 77.67,79.77 72.85,96.27 68.66,99.32 64.49,94.02 53.88,100.84 53.90,107.90 58.62,103.87 66.11,112.89 69.73,111.42 69.42,116.40 52.75,132.66 37.46,135.52 36.38,156.23" fill="none" stroke="black" stroke-width="0.5"/>
    <polyline points="73.25,110.96 70.78,104.78 74.93,109.64 73.25,110.96" fill="none" stroke="black" stroke-width="0.5"/>
    <polyline points="111.45,120.35 112.11,117.06 112.92,119.80 111.45,120.35" fill="none" stroke="black" stroke-width="0.5"/>
    <polyline points="119.84,117.21 120.02,115.21 120.68,116.89 119.84,117.21" fill="none" stroke="black" stroke-width="0.5"/>
    <polyline points="122.98,116.02 124.22,114.38 124.62,115.41 122.98,116.02" fill="none" stroke="black" stroke-width="0.5"/>
  </g>
  <g inkscape:groupmode="layer" inkscape:label="legend" id="legend">
    <text x="28.00" y="195.34" font-size="2.40" text-anchor="start" fill="black" font-family="monospace">LEGEND</text>
    <line x1="45.00" y1="194.53" x2="51.00" y2="194.53" stroke="black" stroke-width="0.7"/>
    <text x="52.50" y="195.34" font-size="2.20" text-anchor="start" fill="black" font-family="monospace">City limits</text>
    <line x1="71.35" y1="194.53" x2="77.35" y2="194.53" stroke="gray" stroke-width="0.7"/>
    <text x="78.85" y="195.34" font-size="2.20" text-anchor="start" fill="black" font-family="monospace">Roads</text>
    <line x1="89.60" y1="194.53" x2="95.60" y2="194.53" stroke="blue" stroke-width="0.7"/>
    <text x="97.10" y="195.34" font-size="2.20" text-anchor="start" fill="black" font-family="monospace">Rivers / water</text>
    <line x1="120.00" y1="194.53" x2="126.00" y2="194.53" stroke="red" stroke-width="0.7"/>
    <text x="127.50" y="195.34" font-size="2.20" text-anchor="start" fill="black" font-family="monospace">Railroads</text>
  </g>
  <g inkscape:groupmode="layer" inkscape:label="history" id="history">
    <polyline points="30.00,242.98 37.50,226.00 45.00,212.48 52.50,202.44 60.00,195.85 67.50,192.73 75.00,193.08 82.50,196.89 90.00,204.17 97.50,214.91 105.00,229.12 112.50,246.79 120.00,263.14" fill="none" stroke="black" stroke-width="0.6"/>
  </g>
  <g inkscape:groupmode="layer" inkscape:label="forecast" id="forecast">
    <polyline points="120.00,263.14 126.00,263.98 132.00,264.06 138.00,263.62 144.00,263.42 150.00,263.17 156.00,264.00 162.00,263.73 168.00,262.44 174.00,263.18 180.00,263.71" fill="none" stroke="gray" stroke-width="0.25"/>
    <polyline points="120.00,263.14 126.00,264.78 132.00,263.62 138.00,263.46 144.00,263.22 150.00,262.48 156.00,262.91 162.00,263.38 168.00,263.43 174.00,264.83 180.00,263.73" fill="none" stroke="gray" stroke-width="0.25"/>
    <polyline points="120.00,263.14 126.00,263.09 132.00,263.59 138.00,265.11 144.00,265.73 150.00,265.00 156.00,266.00 162.00,265.67 168.00,266.06 174.00,266.34 180.00,265.48" fill="none" stroke="gray" stroke-width="0.25"/>
    <polyline points="120.00,263.14 126.00,262.04 132.00,261.20 138.00,261.90 144.00,262.85 150.00,261.97 156.00,263.07 162.00,262.69 168.00,262.71 174.00,262.95 180.00,263.52" fill="none" stroke="gray" stroke-width="0.25"/>
    <polyline points="120.00,263.14 126.00,263.03 132.00,263.52 138.00,262.81 144.00,262.35 150.00,261.72 156.00,261.22 162.00,261.59 168.00,261.03 174.00,260.65 180.00,260.22" fill="none" stroke="gray" stroke-width="0.25"/>
    <polyline points="120.00,263.14 126.00,263.53 132.00,263.40 138.00,263.23 144.00,261.97 150.00,263.11 156.00,262.92 162.00,263.22 168.00,262.49 174.00,261.09 180.00,261.31" fill="none" stroke="gray" stroke-width="0.25"/>
    <polyline points="120.00,263.14 126.00,263.74 132.00,265.00 138.00,264.05 144.00,264.67 150.00,264.49 156.00,265.13 162.00,264.89 168.00,266.55 174.00,267.30 180.00,267.30" fill="none" stroke="gray" stroke-width="0.25"/>
    <polyline points="120.00,263.14 126.00,264.52 132.00,264.95 138.00,265.14 144.00,264.33 150.00,265.73 156.00,266.45 162.00,266.17 168.00,265.98 174.00,267.30 180.00,267.30" fill="none" stroke="gray" stroke-width="0.25"/>
    <polyline points="120.00,263.14 126.00,262.41 132.00,262.31 138.00,263.59 144.00,264.74 150.00,265.68 156.00,265.39 162.00,264.29 168.00,265.23 174.00,264.52 180.00,264.59" fill="none" stroke="gray" stroke-width="0.25"/>
    <polyline points="120.00,263.14 126.00,263.99 132.00,262.71 138.00,261.99 144.00,261.70 150.00,261.95 156.00,260.84 162.00,261.08 168.00,261.79 174.00,260.62 180.00,259.37" fill="none" stroke="gray" stroke-width="0.25"/>
    <polyline points="120.00,263.14 126.00,263.30 132.00,264.68 138.00,263.75 144.00,263.09 150.00,264.10 156.00,264.44 162.00,265.21 168.00,264.07 174.00,263.51 180.00,264.77" fill="none" stroke="gray" stroke-width="0.25"/>
    <polyline points="120.00,263.14 126.00,262.73 132.00,263.90 138.00,265.60 144.00,266.87 150.00,265.67 156.00,266.54 162.00,266.57 168.00,266.06 174.00,265.14 180.00,264.82" fill="none" stroke="gray" stroke-width="0.25"/>
  </g>
</svg>
